<?xml version="1.0" encoding="utf-8"?>
<!-- Generator: Adobe Illustrator 27.0.0, SVG Export Plug-In . SVG Version: 6.00 Build 0)  -->
<svg version="1.1" xmlns="http://www.w3.org/2000/svg" xmlns:xlink="http://www.w3.org/1999/xlink" x="0px" y="0px"
	 viewBox="0 0 512 512" style="enable-background:new 0 0 512 512;" xml:space="preserve">
<g id="Layer_2">
</g>
<g id="Layer_3">
	<path d="M367,43.3c6.8,0,13,0,19.3,0c10.8,0.1,17.3,6.9,17.7,17.7c0.9,24.1-7.5,43.5-28.5,56.4c-8.6,5.3-15.6,7-30.9,8.3
		c-2.1,7.8-4.3,15.7-6.5,23.7c13.7,4.1,16.7,8.1,16.7,22.1c0,3.6,0,7.2,0,11.5c9.1,0,17.9,0,26.7,0c15.8,0,17.4,2.2,13.5,17.5
		c-1.9,7.6-3.9,15.2-6,23.6c4.3,0,8.2,0,12,0c11.1,0,22.2,0,33.4,0c15.6,0,24.6,7.1,28,22.3c10.6,47.5,21.2,95.1,31.7,142.6
		c1.8,8.1-1.4,12.1-9.8,12.2c-9.8,0.1-19.5,0.1-29.3,0c-7.1,0-9.2-1.9-10.8-9c-8.5-38-17-76-25.3-114.1c-0.8-3.8-2.2-5-6-4.8
		c-8.5,0.3-17.1,0.1-26.1,0.1c2.9,15.9,5.7,31.3,8.5,46.7c7.8,43,16,86,23.3,129.2c3.9,23.1-14.7,44.7-38.3,45.9
		c-0.5,0-1,0.1-1.5,0.1c-81.6,0-163.2,0.2-244.8-0.1c-25.9-0.1-44.2-23.7-39.4-49.6c10.4-56.6,20.8-113.3,31.1-170
		c0.1-0.5,0-1,0-1.5c-14.2-3.8-17.2-7.8-17.2-22.8c0-2.2,0-4.4,0-6.7c0-12.3,2.8-16.3,14.9-20.8c-2-8-4-16-6.1-24.1
		c-0.5-1.8-1.1-3.6-1.5-5.4c-1.5-6.8,1.8-11.2,8.8-11.2c10.8-0.1,21.5,0,33.1,0c0-4.1,0-7.9,0-11.8c0-13.5,3.5-18.2,16.7-21.7
		c-3.3-12.1-6.5-24.3-9.8-36.5c-7.3-26.9-14.7-53.7-22.1-80.6c-2.7-9.9,0.3-13.8,10.6-13.8c68.8,0,137.6,0,206.3,0
		c10.3,0,13.2,3.9,10.6,13.8C369,35.9,368,39.4,367,43.3z M142.6,273.5c-0.2,0.9-0.4,1.4-0.5,1.9c-10.6,57.5-21.2,114.9-31.6,172.4
		c-3.3,18.3,7.8,31,26.6,31c79.4,0,158.7,0,238.1,0c19.2,0,29.9-13.2,26.4-32c-8.6-46-16.9-92.1-25.4-138.2
		c-2.1-11.7-4.3-23.4-6.5-35.1C293.8,273.5,218.4,273.5,142.6,273.5z M320.9,150c10.4-38.2,20.8-76.3,31.2-114.5
		c-64.4,0-127.9,0-192,0C170.6,73.9,181,112,191.4,150C234.7,150,277.6,150,320.9,150z M140.4,223.8c77.4,0,154.5,0,231.7,0
		c2.1-8.1,4.1-16,6.1-24.1c-81.5,0-162.6,0-244,0C136.3,208.1,138.3,215.9,140.4,223.8z M387.4,240.8c-87.7,0-175.1,0-262.2,0
		c0,5.6,0,10.8,0,15.8c87.6,0,174.8,0,262.2,0C387.4,251.3,387.4,246.2,387.4,240.8z M475.6,384.9c-0.5-2.5-0.7-4.2-1.1-5.9
		c-4.7-21.4-9.5-42.7-14.2-64.1c-4.8-21.7-9.6-43.4-14.4-65.1c-1-4.4-2.3-9-7.4-9.2c-11.4-0.4-22.8-0.1-34.2-0.1
		c0,5.7,0,10.9,0,16.4c6,0,11.6,0,17.3,0c7.1,0,9.4,1.9,11,8.8c2.8,12.7,5.6,25.4,8.4,38c5.7,25.7,11.4,51.4,17.3,77
		c0.3,1.5,2.1,3.7,3.4,3.8C466.1,385.2,470.5,384.9,475.6,384.9z M338.2,166.8c-54.9,0-109.4,0-163.8,0c0,5.5,0,10.7,0,15.7
		c54.9,0,109.3,0,163.8,0C338.2,177.2,338.2,172.2,338.2,166.8z M387.3,59.7c-7.1,0-13.9,0.2-20.7-0.1c-3.2-0.1-4.4,1-5.2,4
		c-3.6,13.9-7.5,27.7-11.2,41.5c-0.3,1-0.2,2.2-0.3,3.3C374.3,106.3,389.5,86.7,387.3,59.7z"/>
</g>
</svg>
