<?xml version="1.0" encoding="utf-8"?>
<!-- Generator: Adobe Illustrator 27.0.0, SVG Export Plug-In . SVG Version: 6.00 Build 0)  -->
<svg version="1.1" xmlns="http://www.w3.org/2000/svg" xmlns:xlink="http://www.w3.org/1999/xlink" x="0px" y="0px"
	 viewBox="0 0 512 512" style="enable-background:new 0 0 512 512;" xml:space="preserve">
<g id="Layer_2">
</g>
<g id="Layer_3">
	<path d="M17.2,311.7c2.2-8.6,8.8-14.1,14.6-20c8.6-8.7,17.4-17.3,26-26.1c1.2-1.3,2-3.5,2.1-5.3c0.2-8.9,0-17.7,0.1-26.6
		c0.1-11.3,7.3-18.6,18.6-19c0.9,0,1.9,0,2.8,0c62.1-0.1,124.2-0.2,186.4-0.2c46.7,0,93.4,0.1,140.1,0.2c14.4,0,21.4,7.1,21.4,21.6
		c0,7.1,0,14.3,0,22.2c3.8,0,7.4,0,10.9,0c25.9,0.1,46.9,14.7,53.4,37.9c4.8,16.9,1.9,33.4-4,49.4c-14.4,39.2-51.1,64.5-93.7,64.9
		c-7.8,0.1-15.6-0.1-23.4,0.1c-1.8,0-4.1,0.7-5.4,1.9c-14.5,12.7-30.5,23.1-48.1,30.9c-0.4,0.2-0.7,0.5-1.9,1.4c2.5,0,4.1,0,5.8,0
		c43.8,0,87.5,0,131.3,0c13.5,0,19.2,6.7,17.3,20.2c-2.5,17.7-17.5,30.8-35.4,30.8c-127.2,0-254.4-0.2-381.6,0.2
		c-17.7,0.1-32.8-12.7-36.4-27.7c-0.2-0.9-0.6-1.7-0.9-2.6c0-3.4,0-6.9,0-10.3c3.3-7.8,9.2-10.8,17.7-10.8
		c32.1,0.3,64.1,0.1,96.2,0.1c1.6,0,3.2,0,5.8,0c-2.2-2.4-3.4-4-4.8-5.4c-14.1-14-28.2-28-42.3-42c-19.5-19.4-38.9-38.8-58.3-58.3
		c-5.7-5.7-11.7-11.1-14.3-19.1C17.2,317.3,17.2,314.5,17.2,311.7z M74.3,251.7c5.1,2.1,9.7,3.2,13.5,5.6
		c16.5,10.6,34.5,14,53.6,10.7c9.1-1.6,18.1-4.4,27-7.2c7.4-2.4,13.6-1.5,19.2,4.2c11,11.2,22.2,22.2,33.3,33.3
		c16.3,16.2,32.7,32.3,48.9,48.7c10.4,10.6,10.3,23.8-0.1,34.4c-13.5,13.7-27.2,27.3-40.9,40.9c-6.1,6.1-12.4,12.1-19.1,18.7
		c2.4,0.6,3.9,1,5.4,1.3c19.5,3.3,39,3.2,58.5,0.1c69.8-11.3,128.7-69.8,138.4-139.8c3.1-22.5,2-45.6,2.7-68.5
		c0.1-4.2-2.4-5.4-6.3-5.4c-109.6,0.1-219.2,0.1-328.9,0c-3.7,0-5,1.5-5.1,4.8C74.3,239.8,74.3,246.1,74.3,251.7z M171.5,461.4
		c3.5-1.8,7-2.7,9.2-4.9c9.8-9.3,19.2-19,28.7-28.5c17.7-17.7,35.5-35.2,53.2-52.9c7.3-7.3,7.2-14.6,0-22c-1.3-1.3-2.8-2.5-4.1-3.8
		c-24.7-24.8-49.5-49.4-73.9-74.4c-5.4-5.6-10.5-7.5-17.5-3.6c-2.5,1.4-5.6,1.8-8.4,2.9c-1.3,0.5-2.6,1.1-3.5,2.1
		c-7.2,7.3-14.3,14.6-21.5,21.9c-5.5,5.6-14.5,6-20.2,0.6c-6.3-6-12.4-12.2-18.5-18.4c-2.2-2.2-5.2-4.4-5.8-7.1
		c-1-4.4-3.7-6.4-7-8.5c-4.6-2.9-7.4-2.9-11.2,0.9c-13.2,13.1-26.4,26.3-39.6,39.5c-6.4,6.4-6.3,14.2,0,20.7
		c4.5,4.7,9.2,9.2,13.9,13.8c16.4,16.3,32.9,32.6,49.2,48.9c22.4,22.4,44.6,45,67.1,67.3C164.1,458.3,167.9,459.5,171.5,461.4z
		 M457,459.3c-1.9,0-3.6,0-5.3,0c-85,0-170,0-255-0.1c-3.5,0-6.1,0.9-8.7,3.4c-10.1,9.7-23.4,9.6-33.2-0.3c-2.2-2.2-4.2-3.1-7.2-3.1
		c-37.1,0.1-74.1,0.1-111.2,0.1c-1.6,0-3.3,0.2-4.9,0.2c0.6,13.4,10.7,22.9,23.9,22.9c125.8,0,251.6,0,377.4,0c0.6,0,1.2,0,1.9,0
		C447.3,482,457.5,471.8,457,459.3z M430,283.5c3.9,0,8.2,0,12.5,0c16.1,0.2,28,12,28.2,28c0.5,39-32.1,73.3-71.1,73.7
		c-8.3,0.1-11.1,4.7-15.1,10.1c7.9,0,15.5,0.9,22.7-0.1c37.8-5.2,65.6-31.9,72.7-69.5c2.1-11.2,2.5-22.4-3.4-32.7
		c-8.5-15-22-20.7-38.7-20.2c-9.7,0.3-9.7,0.1-8.5,9.6C429.4,282.7,429.5,282.8,430,283.5z M402.3,370.4c1.6,0,2.4,0.1,3.1,0
		c27.8-2.6,52.7-31.9,50.8-59.9c-0.4-6.1-4.6-11.4-10.9-12.2c-5.8-0.7-11.7-0.1-17.7-0.1C424.2,323.8,415.9,347.6,402.3,370.4z
		 M104.8,276.5c4.4,4.5,9.5,10.1,15.1,15.1c1.3,1.1,5,1.3,6.2,0.3c4.8-4,9-8.7,13.1-12.9C127.5,278.2,115.7,277.3,104.8,276.5z"/>
	<path d="M175.9,185.3c0.2-5.9,3-12.9,8.4-18.6c13.1-13.6,12.7-24.9,0-39c-12.2-13.4-11.7-31.6,0.1-45.5c5.1-6,9.7-12,10.1-20.4
		c0.2-3.9,4-6.4,7.6-5.9c3.8,0.5,6.5,3.7,6.3,8c-0.2,7-2,13.5-6.4,19.1c-1.9,2.5-3.9,4.8-5.9,7.2c-8.3,10.1-8.3,19.7,0.1,29.9
		c1.5,1.8,3,3.5,4.5,5.4c10.4,13,10.4,30.4,0.1,43.5c-3,3.8-6.1,7.5-8.6,11.6c-1.3,2.1-1.8,5-2.1,7.5c-0.7,5.6-3.5,8.9-7.9,8.5
		C178.1,196.1,175.8,192.9,175.9,185.3z"/>
	<path d="M260.9,147.3c-0.1,8.6-2.8,16.2-8.5,22.6c-5.3,6-10.1,12.1-10.3,20.8c-0.1,3.8-3.4,5.9-7.3,5.8c-3.7-0.1-6.5-3.1-6.6-7.1
		c-0.3-7.2,1.8-13.8,6-19.7c1.8-2.5,3.9-4.8,5.9-7.2c8.5-10.4,8.6-19.9,0.1-30.3c-1.8-2.2-3.7-4.2-5.3-6.5
		c-9.2-12.3-9.2-28.9,0-41.2c1.5-2,3.1-3.9,4.8-5.8c4-4.4,6.4-9.4,7-15.4c0.5-5.1,3.7-7.9,7.7-7.4c4.3,0.5,6.7,4.1,6.5,9.2
		c-0.4,10.1-5.8,17.7-12.1,25c-8.6,10-8.5,19.7-0.2,29.8c1.7,2,3.4,4,5.1,6.1C258.6,132.5,260.9,139.3,260.9,147.3z"/>
	<path d="M280.5,185.5c0.2-6,2.9-13.1,8.4-18.7c13.3-13.8,12.6-25.1,0.1-39c-12.1-13.3-11.7-31.4-0.2-45.1
		c5.3-6.3,10.1-12.5,10.5-21.2c0.2-3.9,3.6-5.7,7.5-5.4c3.8,0.3,6.5,3.6,6.4,7.9c-0.2,7.2-2.1,13.8-6.6,19.5
		c-2.1,2.7-4.4,5.3-6.5,7.9c-7.2,9.1-7.2,18.6,0,27.7c1.7,2.2,3.6,4.3,5.4,6.5c10.4,13,10.4,30.4,0.1,43.5c-3,3.8-6.1,7.5-8.6,11.6
		c-1.3,2.1-1.8,5-2.1,7.5c-0.7,5.6-3.5,8.9-7.8,8.5C282.7,196.2,280.4,192.9,280.5,185.5z"/>
	<path d="M170.9,376.1c6.9,0.7,10.8,4.9,14.8,8.8c5.5,5.5,10.8,11.1,16.4,16.5c6.5,6.3,6.4,16-0.1,22.3
		c-6.9,6.7-13.5,13.7-20.6,20.3c-6.2,5.7-14.7,5.3-20.6-0.6c-6.3-6.2-12.5-12.5-18.8-18.7c-8-7.9-8-16.4,0.1-24.4
		c6.2-6.1,12.1-12.5,18.5-18.3C163.5,379.4,167.4,378,170.9,376.1z M198.2,412.7c-0.7-1.3-0.9-2.7-1.8-3.5
		c-6.9-7-13.7-13.9-20.8-20.8c-3-2.9-6-2.4-8.9,0.7c-5.7,5.9-11.6,11.6-17.5,17.4c-4.6,4.5-4.6,7.6,0,12.1
		c5.6,5.4,11.1,10.8,16.6,16.3c4.8,4.8,6.6,5,11.5,0.2c6.2-6.1,12.3-12.3,18.4-18.5C196.8,415.5,197.4,414,198.2,412.7z"/>
	<path d="M171.4,352.2c-3.7-2.1-7.8-3.5-10.7-6.2c-6.4-5.7-12.1-12-18.2-18c-8.4-8.2-8.4-16.9,0.1-25c6-5.8,12-11.7,17.8-17.8
		c6.1-6.3,14.8-7,21.2-1.1c7.6,7.1,14.9,14.5,22.2,22c4.4,4.6,4.3,14.4-0.1,18.9c-7.4,7.6-14.8,15.1-22.6,22.2
		C178.6,349.4,175.1,350.3,171.4,352.2z M171.2,342.1c1.8-0.9,3.4-1.4,4.4-2.4c7-6.8,13.9-13.7,20.8-20.7c2.2-2.2,1.9-4.9-0.2-7.1
		c-6.6-6.8-13.3-13.5-20.1-20.1c-3.5-3.3-6-3-9.2,0.2c-5.8,5.8-11.6,11.6-17.5,17.4c-4.8,4.7-4.7,7.7,0.2,12.4
		c5.8,5.6,11.4,11.4,17.2,17C168,340.1,169.6,341,171.2,342.1z"/>
	<path d="M88.2,363.9c-1.2-6.8,3.9-10.2,7.7-14.2c5.7-5.9,11.6-11.7,17.6-17.3c5.4-5.1,13.6-5.4,19.1-0.3
		c7.3,6.7,14.4,13.7,21.1,21.1c7.3,8,6.7,15.3-1.2,23.3c-6.2,6.3-12.5,12.5-18.8,18.7c-5.6,5.6-14.4,6-20.2,0.4
		c-7.5-7.2-15-14.4-22.1-22.1c-2.2-2.4-2.9-6.2-4.3-9.4C87.4,364.1,87.8,364,88.2,363.9z M123.2,390.6c1.6-1,3.1-1.7,4.3-2.8
		c6-5.8,12-11.7,18-17.6c4.8-4.7,4.7-7.7-0.2-12.5c-5.8-5.7-11.5-11.3-17.3-17c-3.7-3.6-5.6-3.9-9.4-0.2
		c-6.7,6.5-13.2,13.1-19.8,19.7c-2.4,2.4-2.5,5-0.1,7.4c6.6,6.7,13.3,13.5,20.1,20.1C119.8,388.9,121.4,389.6,123.2,390.6z"/>
	<path d="M184,363.3c1.9-3.4,3.2-7.3,5.7-10.1c6.6-7.2,13.6-14,20.8-20.7c6.1-5.7,14.7-5.1,20.5,0.7c6.1,6.2,12.2,12.3,18.4,18.4
		c8.3,8.1,8.3,16.6,0,24.7c-6.2,6.1-12.3,12.2-18.4,18.4c-5.8,5.9-14.5,6.5-20.5,0.8c-7.7-7.2-15.3-14.6-22.4-22.4
		C186,371,185.5,367.2,184,363.3z M246.6,364c-1.3-2.1-2.2-3.9-3.5-5.3c-6.2-6.3-12.5-12.5-18.8-18.8c-2.7-2.7-5.6-2.6-8.2,0
		c-7,6.9-14,13.7-20.6,20.9c-1.1,1.2-1.2,5.3-0.1,6.5c6.7,7.3,13.9,14.2,21,21.2c2.5,2.4,5.4,2.3,7.9-0.1
		c6.3-6.2,12.6-12.4,18.8-18.8C244.5,368,245.3,366,246.6,364z"/>
	<path d="M38.2,315c2-3.6,3.4-7.6,6-10.6c6.2-6.9,13-13.3,19.7-19.8c6.1-5.9,14.3-6.3,20.5-0.5c7.6,7.1,15,14.4,22.1,21.9
		c4.7,4.9,4.5,14.4-0.3,19.3c-6.7,6.9-13.4,13.8-20.4,20.4c-8.2,7.7-16.1,7-23.9-1.3c-5.3-5.6-11-11-16.5-16.4
		C42,324.6,39.2,320.8,38.2,315z M74.2,342.1c1.8-1,3.6-1.5,4.7-2.6c6.9-6.7,13.7-13.5,20.5-20.4c2.2-2.2,2.2-4.8,0-7
		c-6.8-6.8-13.5-13.7-20.5-20.4c-3.3-3.2-6-2.8-9.3,0.6c-5.8,5.9-11.6,11.7-17.5,17.4c-4.3,4.2-4.3,7.7,0,11.9
		c5.9,5.7,11.6,11.7,17.5,17.4C70.9,340.1,72.6,341,74.2,342.1z"/>
</g>
</svg>
