<?xml version="1.0" encoding="utf-8"?>
<!-- Generator: Adobe Illustrator 27.0.0, SVG Export Plug-In . SVG Version: 6.00 Build 0)  -->
<svg version="1.1" xmlns="http://www.w3.org/2000/svg" xmlns:xlink="http://www.w3.org/1999/xlink" x="0px" y="0px"
	 viewBox="0 0 512 512" style="enable-background:new 0 0 512 512;" xml:space="preserve">
<g id="Layer_2">
</g>
<g id="Layer_3">
	<path d="M17.2,455.5c3.3-7.8,9.2-11.2,17.7-10.8c8,0.4,16.1,0.1,24.1,0.1c0.3-0.5,0.6-1,0.9-1.5c-1.2-0.7-2.5-1.2-3.5-2.2
		c-13.6-13.2-20.6-29.4-20.7-48.4c-0.1-8.7,0-17.4,0-26.2c0-6.7,2.6-9.2,9.4-9.2c11.2,0,22.4,0,34.1,0c-0.7-1.6-1.4-3.2-2.1-4.6
		c-8.1-17.5-14.4-35.7-15.7-54.9c-1.6-22.3-1.2-44.8-1.3-67.2c0-7.3,6.1-13.8,13.5-15.4c2.6-0.5,5.2-0.7,7.9-0.7
		c108.7,0,217.3,0,326,0c1.1,0,2.2,0,3.3,0c10.9,0.5,18.3,7.9,18.4,18.9c0.1,8.1,0,16.1,0,24.5c7.3,0.4,14.3,0.4,21.2,1.2
		c24.8,3,44.7,25.1,45.3,50c1.2,52.3-38.9,96.9-91,100.8c-10.5,0.8-21.2,0.4-31.7,0.7c-2,0.1-4.4,0.7-5.8,2
		c-14.4,12.6-30.3,22.9-47.7,30.7c-0.5,0.2-1,0.5-2.6,1.5c2.8,0,4.3,0,5.8,0c43.9,0,87.8,0,131.7,0c13.3,0,19,6.7,17.3,19.8
		c-2.4,19.3-20.9,31.5-36,31.5c-127-0.4-254.1-0.4-381.1,0c-17.7,0.1-32.8-12.7-36.4-27.7c-0.2-0.9-0.6-1.7-0.9-2.6
		C17.2,462.4,17.2,459,17.2,455.5z M225.5,443.4c0.9,0.2,2.2,0.6,3.5,0.7c42.4,3.2,81.4-6.7,115.6-32.2c43.5-32.4,67-76,69.6-130.3
		c0.7-15.1,0.3-30.2,0.4-45.3c0-6.8-0.8-7.6-7.9-7.6c-60.4,0-120.8,0-181.2,0c-47.8,0-95.6,0-143.4,0c-7.3,0-7.9,0.6-7.9,8.1
		c0,11.8,0,23.7,0,35.5c0,28.5,6.1,55.5,19.1,80.9c3.2,6.2,6.4,11.9,13.4,14.8c3.2,1.3,6,3.9,8.6,6.4c4.1,3.9,7.8,8.2,11.9,12.5
		c0.7-1.8,1.3-3.6,2-5.3c13.8-33.2,38.1-53.5,74-57.7c16.4-1.9,33.2-0.9,49.9-0.9c4.8,0,7.2,3.1,7.2,8.5c0.1,12.8,0,25.5,0,38.3
		c0,23.4-8.5,43.7-23.4,61.4C233.3,435.3,229.4,439.2,225.5,443.4z M31.5,459.6c0.7,13.3,10.6,22.9,23.5,22.9
		c126.3,0,252.6,0,378.8,0c6.6,0,12.2-2.5,16.8-7c4.4-4.2,7-9.3,6.4-15.9C315.1,459.6,173.4,459.6,31.5,459.6z M136.9,445.1
		c12.4,0,23.1,0,33.8,0c35.3,0,66.9-24.7,73.1-59.4c2.7-15.4,1.5-31.6,2-47.4c0-0.2-0.3-0.5-0.8-1.1c-10.8,0-21.8-0.3-32.8,0.1
		c-34.8,1-64.6,24.2-71.6,58C137.2,411.1,138,427.7,136.9,445.1z M123.5,444.9c0-6.7,0-12.6,0-18.5c0-30.8-20.7-52.8-51.5-54.5
		c-7.2-0.4-14.5-0.1-21.8-0.1c0,8.6-0.5,16.5,0.1,24.2c1.6,22.1,15.5,40,36,46.5C98.3,446.5,110.6,444.3,123.5,444.9z M383.9,395.9
		c5.5,0,9.8,0.1,14.1,0c44.9-1.1,80.2-35.1,83.2-79.9c1.2-17.3-7-32-21.6-39.2c-6.9-3.4-14.3-3.9-21.8-3.9c-9.5,0-9.7,0.3-8.4,9.7
		c0,0.1,0.2,0.2,0.7,0.9c4.2,0,8.8-0.1,13.4,0c14.6,0.3,26.3,11.7,27.1,26.2c0.5,9.4-1.2,18.6-4.5,27.4c-10.8,28.9-38.2,48-69,48.5
		c-2.1,0-4.8,0.4-6.3,1.7C388.5,389.4,386.7,392.3,383.9,395.9z M402.3,370.3c1.7,0,2.8,0.1,3.8,0c27.8-3.4,51.1-31,50.1-59.2
		c-0.3-7-5.1-12.5-12.1-13.1c-5.4-0.4-10.8-0.1-16.5-0.1C424.2,323.8,415.8,347.7,402.3,370.3z"/>
	<path d="M175.9,185.5c0.2-5.7,2.7-12.7,8-18.3c13.8-14.2,13.1-25.5,0.3-39.7c-12-13.3-11.4-31.4,0.2-45.1
		c5.2-6.2,9.9-12.2,10.3-20.8c0.2-3.9,3.5-5.8,7.4-5.6c3.8,0.2,6.6,3.5,6.5,7.8c-0.2,6.6-1.7,12.9-5.7,18.4
		c-1.8,2.5-3.8,4.9-5.8,7.3c-9.3,11.1-9.4,20.5,0.2,31.7c5.4,6.3,10.2,12.9,11.1,21.6c1,9.8-1,18.5-7.2,26.2
		c-2.1,2.5-4.6,4.8-6.1,7.6c-2,3.7-3.8,7.8-4.6,11.9c-1.1,5.2-3.5,8.4-7.8,8.2C178.2,196.3,175.8,193,175.9,185.5z"/>
	<path d="M228.2,185.5c0.2-5.9,2.8-13,8.3-18.7c13.3-13.8,12.9-25.1,0-39.4c-12-13.3-11.5-31.4,0.1-45.1c5.2-6.2,9.9-12.2,10.3-20.8
		c0.2-3.9,3.5-5.8,7.3-5.6c3.8,0.2,6.6,3.5,6.5,7.7c-0.1,7-1.9,13.5-6.3,19.2c-2,2.6-4.1,5.1-6.2,7.6c-8.1,9.9-8.2,19.6,0.1,29.5
		c5.7,6.7,11,13.4,12,22.6c1,9.9-1.1,18.8-7.5,26.6c-3.1,3.9-6.2,7.8-8.8,12c-1.2,2-1.5,4.7-1.8,7.1c-0.6,5.3-3.4,8.5-7.6,8.2
		C230.6,196.3,228.1,193,228.2,185.5z"/>
	<path d="M280.5,185.4c0.2-6,3-13.1,8.4-18.8c13.2-13.7,12.6-25.1,0-39c-12.2-13.4-11.7-31.6,0.1-45.5c5.1-6,9.7-12,10.1-20.4
		c0.2-3.9,4-6.4,7.6-5.9c3.8,0.5,6.5,3.7,6.3,8c-0.2,7.2-2.1,13.8-6.7,19.5c-2.2,2.8-4.6,5.5-6.8,8.3c-6.8,8.8-6.8,18.1,0.1,27
		c1.8,2.3,3.8,4.5,5.7,6.8c10.4,13,10.4,30.4,0.1,43.5c-3,3.8-6.1,7.5-8.6,11.6c-1.3,2.1-1.8,5-2.1,7.5c-0.7,5.5-3.2,8.6-7.4,8.5
		C283,196.5,280.4,193,280.5,185.4z"/>
</g>
</svg>
