<?xml version="1.0" encoding="utf-8"?>
<!-- Generator: Adobe Illustrator 27.0.0, SVG Export Plug-In . SVG Version: 6.00 Build 0)  -->
<svg version="1.1" id="Layer_1" xmlns="http://www.w3.org/2000/svg" xmlns:xlink="http://www.w3.org/1999/xlink" x="0px" y="0px"
	 viewBox="0 0 512 512" style="enable-background:new 0 0 512 512;" xml:space="preserve">
<style type="text/css">
	.st0{fill:#FFFFFF;}
</style>
<path d="M476.7,495.4c-146.8,0-293.7,0-440.5,0c-0.5-0.3-1-0.7-1.6-0.8c-11.1-3.8-17.1-12.1-17.2-23.9c0-5.3-0.1-10.6,0-15.9
	c0.2-10.1,6.7-19.4,16.5-21.9c5.5-1.4,11.3-1.2,17.1-1.5c6-0.2,6-0.1,6-6.2c0-20.8-0.7-41.7,0.3-62.5c0.5-11-1.7-18.4-12.7-22.6
	c-6.7-2.6-7.4-7.5-3.9-13.8c4.6-8.1,9.5-16.1,13.9-24.3c1.4-2.6,2.4-5.8,2.4-8.7C57.1,251.1,57,209,57,166.9c0-1.8-0.2-3.6-0.3-5.7
	c-5,0-9.5,0.1-14,0c-15.3-0.3-25.2-10.4-25.3-25.7c0-30.9,0-61.9,0-92.8c0-15.3,10-25.3,25.5-25.3c142.4,0,284.8,0,427.3,0
	c2.3,0,4.7,0.2,6.9,0.7c9.8,2.2,15.1,9.1,18.3,18.1c0,35.5,0,70.9,0,106.4c-6.7,19-22.4,19.8-39.1,18.4c0,7,0,13.2,0,19.2
	c6.4-0.4,12.5-1.6,18.4-1c10.9,1.2,17.1,8.5,20.6,18.4c0,10,0,19.9,0,29.9c-6.8,19.5-21.8,20.9-39.1,17c-0.2,1.5-0.4,2.4-0.4,3.3
	c0,59.8,0,119.6-0.1,179.5c0,3.3,1.2,4.2,4.4,4.2c5.6,0,11.3-0.3,16.7,0.8c9.9,2,15.5,9.1,18.5,18.4c0,8.7,0,17.4,0,26.1
	C492.3,486.1,486.1,492.3,476.7,495.4z M213.1,431.1c-5.3-4.3-10.4-7.7-14.7-11.9c-13.3-13-20.8-28.9-21.5-47.6
	c-0.4-11.2-0.5-22.4-0.5-33.6c0-7.3,3-9.9,10.4-10.1c2.6,0,5.3,0,7.9,0c43.2,0,86.5,0,129.7,0c9.2,0,11.6,2.4,11.9,11.5
	c0,1.5,0.2,3,0.3,3.6c4.9,1.5,9.3,2.2,13.1,4c13.6,6.5,20.6,21,17.6,35.6c-2.9,14.2-15.5,24.9-30.8,24.9c-8.2,0-15.3,0.6-19.4,8.8
	c-0.3,0.5-0.8,0.9-1.3,1.3c-5.1,4.4-10.3,8.7-15.7,13.2c46.3,0,92.5,0,138.9,0c0-63,0-125.7,0-188.2c-19.6-5.8-94.3-12.2-110.4-9.3
	c-3.9,27.5-20.5,40-48,39.2c0,7.6,0.1,14.7,0,21.9c-0.1,6.6-3.2,9.7-9.7,9.8c-8.9,0.1-17.7,0-26.6,0c-9.6,0-12.1-2.5-12.1-12.1
	c0-6.5,0-12.9,0-19.8c-3.3,0-5.9,0.1-8.6,0c-19.7-0.6-36.4-14.4-38.2-34c-1.6-17.9-0.8-36-0.8-54.1c0-4.1,2.7-6.9,7-7.4
	c2.7-0.3,5.5-0.5,8.4-0.8c0-5,0-9.7,0-14.6c-15.7,0-31.2,0-47.1,0c0,2,0,3.6,0,5.3c0,17.7-0.1,35.5,0.1,53.2c0.1,4.8-1.1,9-3.5,13.2
	c-8.8,15.5-17.4,31.2-26.1,46.8c-1,1.8-1.2,3.1-0.2,5.4c1.2,2.6,1.6,6.7,0.3,9.1c-11.4,20.5-23.2,40.8-35.1,61
	c-2.8,4.8-6.5,5.7-11.6,3.5c-1-0.4-1.9-0.9-3.2-1.5c0,24.8,0,49.1,0,73.6C120.3,431.1,166.4,431.1,213.1,431.1z M256.5,144.5
	c70.4,0,140.9,0,211.3,0c9.2,0,11.5-2.4,11.5-11.5c0-29.1,0-58.2,0-87.3c0-9.7-2.5-12.2-12-12.2c-140.6,0-281.1,0-421.7,0
	c-9.4,0-12,2.6-12,11.8c0,28.9,0,57.9,0,86.8c0,10.4,2,12.4,12.5,12.4C116.2,144.5,186.4,144.5,256.5,144.5z M193.1,344.4
	c0,8.6-0.1,16.7,0,24.8c0.3,22.2,15,42.7,35.7,50.6c12,4.6,24.5,3.8,36.8,3.5c15.6-0.3,28.8-6.5,39.6-17.8
	c16.7-17.5,15.3-39.2,14.4-61.1C277.4,344.4,235.5,344.4,193.1,344.4z M256.8,447.8c-28.5,0-56.9,0-85.4,0c-42.4,0-84.9,0-127.3,0
	c-7.6,0-10.4,2.8-10.5,10.4c0,2.8,0,5.6,0,8.4c0,10.5,2.3,12.7,12.9,12.7c139.9,0,279.8,0,419.8,0c1.4,0,2.8,0.1,4.2,0
	c5.7-0.5,8.5-3.1,8.8-8.9c0.2-3.6,0.1-7.2,0.1-10.7c0-9.5-2.4-11.9-11.8-11.9C397.3,447.8,327,447.8,256.8,447.8z M201.1,193.2
	c0,13.7-0.5,26.9,0.1,40.1c0.6,13.8,9.9,22.7,23.9,22.9c20.8,0.4,41.7,0.4,62.5,0c14.1-0.2,23.3-9.2,24-23.3
	c0.6-10.4,0.2-20.8,0.2-31.3c0-2.7,0-5.5,0-8.4C274.7,193.2,238.3,193.2,201.1,193.2z M74,161.4c0,35.7,0,70.8,0,106.4
	c5.7-6.5,6.8-6.8,14.9-4c0.4-0.4,0.8-0.8,1.1-1.4c7.3-12.7,14.5-25.3,21.7-38.1c0.8-1.5,1-3.5,1-5.3c0.1-17.7,0.1-35.5,0-53.2
	c0-1.5-0.2-3-0.2-4.4C99.4,161.4,86.8,161.4,74,161.4z M329,192c1.1,0.1,2.3,0.4,3.5,0.4c15.2-0.4,30.5-0.2,45.6-1.6
	c19.4-1.8,38.8-4.9,58.1-7.5c1.1-0.2,2.9-1.3,3-2.1c0.2-6.6,0.1-13.2,0.1-19.8c-42.6,0-84.5,0-126.5,0c0,5,0,9.8,0,14.5
	C326.4,178,326.4,178,329,192z M376.2,217.1c1.5,0.3,2.7,0.7,3.9,0.9c29.5,3.9,59.1,7.8,88.6,11.6c6.7,0.9,10.4-2.1,10.6-8.9
	c0.2-4,0-8.1,0-12.1c0-11.8-2.9-14.3-14.6-12.6c-0.6,0.1-1.2,0.3-1.8,0.4c-19.8,2.6-39.7,5.2-59.5,7.9c-9,1.2-18.1,2.5-27.2,3.7
	C376.2,211.1,376.2,213.9,376.2,217.1z M105.9,292.9c-6.9-4-13.4-7.7-20.3-11.7c-9.3,16.1-18.4,31.9-27.6,47.9
	c7.1,4.1,13.6,7.8,20.3,11.7C87.6,324.7,96.6,309.1,105.9,292.9z M295.3,161.5c-26.1,0-52,0-78.3,0c0,3.6,0.2,6.8-0.1,10
	c-0.4,4,1.2,5,5,5c20.5-0.2,41.1-0.1,61.6-0.1c13.9,0,13.9,0,12.1-14.2C295.6,162.1,295.5,162,295.3,161.5z M107.6,275
	c9.2-16.5,18.1-32.7,27.1-48.8c0.5-0.8,1-1.6,1.3-2.5c0.4-1.5,0.9-3,0.9-4.5c0.1-18.2,0-36.4,0-54.6c0-1-0.2-2.1-0.3-3.2
	c-2.4,0-4.5,0-7.1,0c0,1.9,0,3.6,0,5.2c0,13.2-0.7,26.5,0.2,39.7c0.9,13.9-2.2,26.1-10,37.7c-6.1,8.9-10.9,18.7-16.3,28.3
	C104.8,273.3,106,274,107.6,275z M333.3,391.5c9.7,0.8,17.5-4.9,18.3-13.7c0.9-9.4-4.9-16.3-14.3-17.3
	C336,370.7,334.7,381,333.3,391.5z M328.6,215.9c10.5,0,20.8,0,31,0c0-2.5,0-4.6,0-6.7c-10.5,0-20.6,0-31,0
	C328.6,211.5,328.6,213.6,328.6,215.9z M263.8,272.7c-5.2,0-9.8,0-14.5,0c0,5.2,0,10.2,0,15.1c5,0,9.6,0,14.5,0
	C263.8,282.7,263.8,277.9,263.8,272.7z"/>
<path class="st0" d="M476.7,495.4c9.4-3,15.6-9.3,18.7-18.7c0,6.2,0,12.4,0,18.7C489.2,495.4,482.9,495.4,476.7,495.4z"/>
<path d="M208.6,88.9c0.1-26.4,22.2-48.3,48.2-47.9c26.5,0.4,47.8,22.2,47.5,48.5c-0.3,26.8-21.8,47.7-48.9,47.5
	C229.7,136.8,208.5,115,208.6,88.9z M244.9,88.7c-1.2-3.8-2.3-7.1-3.4-10.4c-2.1-6.5-0.5-11,4.5-12.8c4.7-1.7,8.9,1.2,11.2,7.7
	c1.4,4.3,2.7,8.6,4.3,12.8c0.4,1.1,1.6,2.8,2.4,2.8c8,0.2,16,0.1,24,0.1c-0.9-19.1-15.3-32.2-33.5-31.3c-16.2,0.8-30.1,15.6-29,31.1
	C231.6,88.7,237.9,88.7,244.9,88.7z M283.1,105.7c-18.1,0-35.5,0-53.4,0c6.6,10.2,15.7,15.1,26.9,15
	C267.7,120.6,276.6,115.7,283.1,105.7z"/>
<path d="M399.5,121.1c-14.9,0-29.8,0-44.7,0c-8,0-10.8-2.6-10.8-10.4c0-14.5,0-28.9,0-43.4c0-7.3,2.8-10.3,10-10.4
	c30.6-0.1,61.2-0.1,91.8,0c6.9,0,9.9,3.1,10,10.1c0.2,14.8,0.2,29.5,0,44.3c-0.1,7-3.2,9.7-10.2,9.8
	C430.2,121.2,414.9,121.1,399.5,121.1z M360.5,73.6c0,10.6,0,20.8,0,31c26.4,0,52.4,0,78.5,0c0-10.5,0-20.7,0-31
	C412.7,73.6,386.8,73.6,360.5,73.6z"/>
<path d="M57.3,90.1c-1-17.2,12.8-31.9,30.9-32.9c16.6-1,32,12.8,32.9,29.5c1,17.8-12.3,33.3-29.5,34.3
	C73.1,122.1,58.4,108.9,57.3,90.1z M89.2,73.5c-8.7,0-15.7,7-15.6,15.7c0,8.6,7.3,15.8,15.8,15.6c8.4-0.2,15.4-7.2,15.5-15.6
	C105,80.7,97.8,73.5,89.2,73.5z"/>
<path d="M153.4,65.1c2.6,0,5.3-0.2,7.9,0.1c4.5,0.4,7.5,3.8,7.5,8c0,4.4-2.6,7.7-7.4,8c-5.7,0.4-11.5,0.4-17.2,0
	c-4.7-0.3-7.4-3.7-7.3-8c0.1-4.2,3.2-7.5,7.6-7.9C147.5,64.8,150.5,65,153.4,65.1z"/>
<path d="M153.2,96.9c2.6,0,5.3-0.2,7.9,0.1c4.7,0.5,7.6,3.7,7.7,7.9c0.1,4.4-2.3,7.7-7.2,8.1c-5.8,0.5-11.8,0.5-17.6,0
	c-4.7-0.4-7.1-3.6-7.1-7.8c0-4.2,2.9-7.4,7.4-8.2c0.5-0.1,0.9-0.1,1.4-0.1C148.3,96.8,150.7,96.8,153.2,96.9
	C153.2,96.8,153.2,96.8,153.2,96.9z"/>
<path d="M256.7,455.2c49,0,98,0,147,0c2.4,0,5.5-0.2,7.2,1.1c2.3,1.8,4.5,4.9,4.9,7.6c0.5,3.3-1.9,6.2-5.5,7.1
	c-2.1,0.5-4.3,0.7-6.4,0.7c-98.1,0-196.3,0-294.4,0c-1.4,0-2.8,0-4.2-0.2c-5.1-0.8-8.4-4.3-8.1-8.6c0.3-4.4,3.8-7.5,9-7.8
	c1.4-0.1,2.8,0,4.2,0C159,455.2,207.8,455.2,256.7,455.2z"/>
<path d="M65,472.1c-3-0.3-6.2-0.3-9.2-0.8c-4.1-0.7-6.3-3.5-6.5-7.4c-0.2-4,1.9-7.5,5.8-7.8c6.7-0.6,13.6-0.6,20.3,0
	c4,0.4,5.9,3.8,5.7,7.9c-0.2,4.1-2.4,6.7-6.4,7.4C71.6,471.8,68.3,471.8,65,472.1z"/>
<path d="M448,455.3c2.6,0,5.3-0.2,7.9,0.1c4.5,0.5,7.7,3.9,7.8,7.9c0.1,4.1-2.7,7.7-7.4,8.1c-5.8,0.5-11.8,0.4-17.6-0.1
	c-4.6-0.4-7-3.6-7-7.8c0-4.2,2.8-7.5,7.5-8.1C442,455.1,445,455.4,448,455.3C448,455.4,448,455.3,448,455.3z"/>
</svg>
