<?xml version="1.0" encoding="utf-8"?>
<!-- Generator: Adobe Illustrator 27.0.0, SVG Export Plug-In . SVG Version: 6.00 Build 0)  -->
<svg version="1.1" xmlns="http://www.w3.org/2000/svg" xmlns:xlink="http://www.w3.org/1999/xlink" x="0px" y="0px"
	 viewBox="0 0 512 512" style="enable-background:new 0 0 512 512;" xml:space="preserve">
<g id="Layer_2">
</g>
<g id="Layer_3">
	<path d="M17.2,454.5c3.5-7.9,9.6-10.8,18.2-10.7c43.4,0.3,86.9,0.1,130.3,0.1c1.7,0,3.4,0,5.1,0c0.1-0.3,0.3-0.6,0.4-0.9
		c-1.3-0.6-2.5-1.2-3.8-1.8C113.1,415,78.6,372.6,64.3,313.9c-4.2-17.1-4.6-34.5-4.4-51.9c0.1-9.8,0-19.6,0.1-29.4
		c0.1-11.1,7.2-18.3,18.3-18.8c1.1,0,2.2,0,3.3,0c108.7,0,217.3,0,326,0c5.4,0,10.6,0.5,14.9,4.2c4.8,4,6.7,9.2,6.6,15.3
		c0,7.9,0,15.8,0,24.3c4,0,7.5,0,11.1,0c34.9,0.1,58.7,26.4,55.2,61.1c-4.4,44.6-35.3,79.9-79,88.5c-13.4,2.6-27.5,1.9-41.4,2.3
		c-4,0.1-7,1.1-10,3.8c-13.4,11.8-28.3,21.3-44.6,28.6c-0.9,0.4-1.8,0.9-2.6,2.2c1.6,0,3.2,0,4.9,0c43.9,0,87.8,0,131.7,0
		c13,0,18.8,6.5,17.1,19.5c-2.2,17.9-17.4,31.4-35.4,31.4c-127.3,0-254.7-0.2-382,0.2c-15.6,0-31.9-11.1-35.9-27.7
		c-0.2-0.9-0.6-1.7-0.9-2.5C17.2,461.4,17.2,458,17.2,454.5z M244.7,227.6c-54.5,0-109,0-163.4,0c-6.5,0-7.1,0.5-7.1,7.3
		c0.2,13.4,1,26.8,0.6,40.1c-0.6,19.5,3.4,38.2,9.6,56.2c36.5,105.4,167.9,146.7,258.3,81.3c45-32.6,69.1-77,71.8-132.6
		c0.7-14.9,0.3-29.9,0.4-44.8c0-6.5-1-7.5-7.6-7.5C353,227.6,298.9,227.6,244.7,227.6z M31.5,458.4c0.1,13.2,10.5,23.1,24,23.1
		c126.1,0,252.2,0.1,378.3-0.2c5,0,10.6-2.5,15-5.2c6-3.8,8.7-10.1,8.6-17.6C315.2,458.4,173.5,458.4,31.5,458.4z M384,394.6
		c1.4,0.3,2,0.5,2.6,0.5c4.5,0,9,0.2,13.5-0.1c34.8-2.3,59.6-19.6,74.3-51.1c5.5-11.9,8.3-24.7,6.6-37.7
		c-2.9-22.8-21.6-38.1-51.7-33.7c0,3.3,0,6.5,0,10.2c5,0,9.7-0.1,14.3,0c14.6,0.4,26.7,11.9,26.7,26.4c0,8.1-1.1,16.6-3.5,24.3
		c-9.4,30.3-37.7,50.8-69.6,51.3c-2.2,0-4.8,0.3-6.3,1.6C388.4,388.3,386.6,391.3,384,394.6z M402.1,369.5c1.5,0,2.2,0,3,0
		c27.9-2.1,53.7-32.6,51.2-60.5c-0.6-6.2-5.3-11.5-11.7-12c-5.5-0.5-11.1-0.1-17-0.1C424.1,322.8,415.7,346.8,402.1,369.5z"/>
	<path d="M313,144.4c0,10.2-2.5,17.7-8.1,24.1c-5.4,6.1-10.4,12.2-10.6,21.2c-0.1,3.8-3.4,6-7.3,5.6c-3.9-0.4-6.2-2.8-6.4-6.8
		c-0.3-7.6,1.9-14.4,6.6-20.5c2.4-3.1,5-6,7.3-9.1c6-8.2,6-17.3,0-25.5c-1.8-2.4-3.8-4.6-5.6-6.9c-11.3-13.9-11.3-31.5,0.3-45.3
		c5.2-6.2,9.9-12.3,10.3-20.9c0.2-3.9,3.6-5.8,7.4-5.4c4.2,0.5,6.3,3.4,6.2,7.5c-0.1,7.2-2,13.8-6.5,19.6c-2,2.6-4.2,5-6.2,7.6
		c-7.7,9.6-7.7,19.3,0.1,28.9c1.7,2.1,3.4,4,5.1,6.1C310.7,130.9,313,138.2,313,144.4z"/>
	<path d="M176,185.1c0.2-6.5,2.9-13.6,8.4-19.3c13.3-13.8,12.7-25.1,0.2-39c-12.3-13.6-11.7-31.8,0.3-45.9
		c5.1-5.9,9.4-11.8,9.8-20.1c0.2-4,3.3-5.9,7.2-5.8c3.8,0.1,6.6,3.4,6.5,7.7c-0.1,7.2-2.1,13.8-6.6,19.6c-2.1,2.7-4.4,5.3-6.5,7.9
		c-7.2,9.1-7.2,18.6-0.1,27.7c1.7,2.2,3.6,4.3,5.4,6.5c10.5,13,10.5,30.4,0.2,43.5c-2,2.6-4.6,4.8-6.1,7.6c-2,3.8-3.6,7.8-4.5,12
		c-1,4.9-3.4,8-7.5,7.9C178.3,195.3,175.8,191.9,176,185.1z"/>
	<path d="M228.3,185.5c0.2-6.7,2.8-13.8,8.2-19.5c13.7-14.2,12.8-25.4,0.2-39.4c-12.1-13.5-11.6-31.6,0.2-45.5c5.1-6,9.7-12,10-20.5
		c0.2-4,3.4-5.8,7.3-5.6c3.7,0.2,6.4,3.3,6.3,7.4c-0.1,7.3-2,14.1-6.7,20c-2.1,2.7-4.4,5.3-6.5,7.9c-7,8.9-7,18.4-0.1,27.4
		c1.7,2.2,3.6,4.3,5.4,6.5c10.7,13.2,10.8,30.6,0.2,43.8c-1.8,2.3-4.2,4.3-5.6,6.9c-2.1,4.1-3.9,8.4-4.9,12.8
		c-1.1,4.8-3.6,8-7.7,7.7C230.6,195.1,228.2,191.9,228.3,185.5z"/>
</g>
</svg>
