<?xml version="1.0" encoding="utf-8"?>
<!-- Generator: Adobe Illustrator 27.0.0, SVG Export Plug-In . SVG Version: 6.00 Build 0)  -->
<svg version="1.1" xmlns="http://www.w3.org/2000/svg" xmlns:xlink="http://www.w3.org/1999/xlink" x="0px" y="0px"
	 viewBox="0 0 512 512" style="enable-background:new 0 0 512 512;" xml:space="preserve">
<g id="Layer_2">
</g>
<g id="Layer_3">
	<path d="M270.8,113.1c0-2.3,0-4.1,0-5.9c0-26.2,0-52.5,0-78.7c0-8.5,2.5-11.1,10.8-11.1c9.1,0,18.2,0,27.4,0c7.1,0,9.9,2.9,9.9,10
		c0,26.4,0,52.8,0,79.2c0,2,0,3.9,0,6.4c2.2,0,4,0,5.8,0c21.1,0,42.1,0,63.2,0c8.1,0,10.6,2.6,10.6,10.8c0,14.4,0,28.9,0,43.3
		c0,7.1-2.8,9.9-9.9,10c-4.8,0-9.5,0-14.6,0c-1.5,14.8-2.9,29.1-4.3,43.5c-2.8,28.4-5.7,56.8-8.5,85.2c-2.5,24.8-4.9,49.5-7.4,74.3
		c-2.8,28.4-5.7,56.8-8.5,85.2c-0.8,7.6-1.5,15.2-2.4,22.8c-0.6,5.4-3.5,8-8.9,8c-52.5,0-105.1,0-157.6,0c-5.4,0-8.3-2.7-8.9-8
		c-3-29.9-6-59.8-9-89.6c-3.2-31.5-6.4-63.1-9.5-94.6c-2.8-28.2-5.6-56.5-8.4-84.7c-1.4-13.7-2.8-27.4-4.3-41.9c-4.8,0-9.7,0-14.6,0
		c-7.1-0.1-9.9-2.8-9.9-10c0-14.3,0-28.6,0-42.8c0-8.9,2.4-11.3,11.1-11.3c47.1,0,94.2,0,141.2,0C266,113.1,268,113.1,270.8,113.1z
		 M327.3,479.8c3.1-31.3,6.2-62.1,9.3-93c2.5-24.8,4.9-49.5,7.4-74.3c2.8-28.1,5.6-56.1,8.5-84.2c0.4-4.2-0.7-6.2-4.9-7.4
		c-31-8.8-61.2-7.7-90.2,7.2c-22.8,11.8-47.2,14.9-72.4,12.1c-8.7-1-17.2-2.8-26.4-4.4c8.1,81.3,16.2,162.5,24.3,243.9
		C231.2,479.8,279,479.8,327.3,479.8z M382,129.7c-84.8,0-169.2,0-253.8,0c0,10.5,0,20.6,0,31c84.7,0,169.1,0,253.8,0
		C382,150.4,382,140.3,382,129.7z M357.5,177.7c-68.5,0-136.5,0-204.7,0c1.2,11.8,2.4,23.2,3.3,34.5c0.3,3.9,1.8,5.7,5.6,6.8
		c31.1,8.9,61.4,8.6,90.7-6.6c22.5-11.6,46.4-15.2,71.3-12.6c10.2,1,20.4,3.4,30.9,5.2C355.6,196.2,356.5,187.2,357.5,177.7z
		 M287.5,33.9c0,26.7,0,52.9,0,79c5.2,0,9.9,0,14.7,0c0-26.5,0-52.7,0-79C297.2,33.9,292.6,33.9,287.5,33.9z"/>
	<path d="M215.4,264.6c3,0,6,0,8.9,0c12.9,0.2,22.8,10.2,23,23.2c0.1,6,0.1,11.9,0,17.9c-0.2,12.9-10.2,22.8-23.1,23
		c-6,0.1-11.9,0.1-17.9,0c-12.9-0.2-22.8-10.2-23-23.2c-0.1-5.8-0.1-11.6,0-17.4c0.1-13.5,10.1-23.4,23.6-23.5
		C209.7,264.6,212.6,264.6,215.4,264.6z M231,296.7c0-15.7,0-15.7-15.8-15.7c-15.7,0-15.7,0-15.7,15.8c0,15.7,0,15.7,15.8,15.7
		C231,312.5,231,312.4,231,296.7z"/>
	<path d="M287,328.4c3,0,6,0,8.9,0c12.9,0.2,22.8,10.2,23,23.1c0.1,6.1,0.1,12.3,0,18.4c-0.3,12.4-10.2,22.3-22.6,22.5
		c-6.3,0.1-12.6,0.1-18.9,0c-12.4-0.3-22.2-10.2-22.5-22.6c-0.1-6.3-0.1-12.6,0-18.9c0.3-12.4,10.2-22.3,22.6-22.5
		C280.7,328.4,283.8,328.4,287,328.4z M286.5,376.3c16.2,0,16.2,0,16.2-16.4c0-14.9-0.2-15.2-15.3-15.2c-16.1,0-16.1,0-16.1,16.4
		C271.2,376,271.4,376.3,286.5,376.3z"/>
	<path d="M231.2,400.2c3,0,6,0,8.9,0c12.9,0.2,22.9,10.1,23.1,23.1c0.1,6.1,0.1,12.3,0,18.4c-0.3,12.4-10.1,22.3-22.5,22.6
		c-6.3,0.1-12.6,0.1-18.9,0c-12.4-0.3-22.3-10.2-22.6-22.6c-0.1-6.1-0.1-12.3,0-18.4c0.2-13,10.1-22.9,23-23.1
		C225.2,400.2,228.2,400.2,231.2,400.2z M231.7,416.5c-16.2,0-16.2,0-16.2,16.3c0,15.1,0.2,15.3,15.3,15.3c16.2,0,16.2,0,16.2-16.3
		C246.9,416.7,246.7,416.5,231.7,416.5z"/>
	<path d="M318.9,233c5.3,0,10.3,0,15.6,0c0,5.3,0,10.3,0,15.7c-5.2,0-10.2,0-15.6,0C318.9,243.7,318.9,238.6,318.9,233z"/>
	<path d="M295.2,264.9c5.4,0,10.3,0,15.5,0c0,5.3,0,10.3,0,15.7c-5.1,0-10.1,0-15.5,0C295.2,275.4,295.2,270.1,295.2,264.9z"/>
	<path d="M318.8,304.5c0-5.2,0-10.2,0-15.6c5.2,0,10.3,0,15.6,0c0,5.1,0,10.1,0,15.6C329.5,304.5,324.5,304.5,318.8,304.5z"/>
	<path d="M238.9,368.4c-5.2,0-10.2,0-15.5,0c0-5.2,0-10.3,0-15.7c5.1,0,10.1,0,15.5,0C238.9,357.8,238.9,362.9,238.9,368.4z"/>
	<path d="M207.1,384.3c-5.3,0-10.3,0-15.6,0c0-5.3,0-10.3,0-15.7c5.2,0,10.2,0,15.6,0C207.1,373.7,207.1,378.7,207.1,384.3z"/>
</g>
</svg>
