<?xml version="1.0" encoding="utf-8"?>
<!-- Generator: Adobe Illustrator 27.0.0, SVG Export Plug-In . SVG Version: 6.00 Build 0)  -->
<svg version="1.1" xmlns="http://www.w3.org/2000/svg" xmlns:xlink="http://www.w3.org/1999/xlink" x="0px" y="0px"
	 viewBox="0 0 512 512" style="enable-background:new 0 0 512 512;" xml:space="preserve">
<g id="Layer_2">
</g>
<g id="Layer_3">
	<path d="M189.4,495.7c-2.9-2.2-5.5-4.5-4.6-8.7c0.8-3.8,3.6-5.8,8.3-5.8c16.9,0,33.8,0,50.8,0c1.6,0,3.1,0,5.3,0c0-1.5,0-2.9,0-4.2
		c0-42.9,0-85.9-0.1-128.8c0-2.4-1.2-5.2-2.8-7.1c-46-56.8-92.1-113.5-138.1-170.2c-0.6-0.8-1.2-1.6-1.9-2.3c-2.4-2.6-3.5-5.6-1.9-9
		c1.6-3.4,4.6-4.2,8.2-4.2c23.5,0.1,46.9,0,70.4,0c1.5,0,3.1,0,4.9,0c-1.5-15-6.6-28-15.4-39.5c-18.9-24.8-50.5-35.8-80.5-28.1
		c-30.2,7.7-52.9,32.7-57.6,63.4c-7,45.5,27.9,87.4,73.9,88.8c0.9,0,1.7,0,2.6,0.1c4.7,0.5,7.5,3.6,7.2,7.8
		c-0.3,4.1-3.2,6.6-7.9,6.6c-14,0-27.3-3.2-39.9-9.4c-35.8-17.8-56.4-56.9-50.4-95.6c6.2-40,36.8-71,76.3-77.5
		c51.6-8.5,100.6,28.9,106,80.9c0.1,0.7,0.2,1.4,0.3,2.4c1.5,0.1,2.9,0.2,4.2,0.2c35.1,0,70.2,0,105.3,0.1c3.3,0,4.7-1.1,5.9-3.9
		c3.1-7.5,6.6-14.8,9.9-22.2c2.7-5.9,5.3-7,11.5-5c16.1,5.2,31.2-2.5,35.3-18c3.9-14.8-5.6-29.5-21-32.5
		c-14.5-2.8-28.9,7.7-30.6,22.6c-0.2,1.3-0.2,2.5-0.4,3.8c-0.7,4.5-3.7,7-7.8,6.7c-4-0.3-6.7-3.5-6.6-8c0.2-9.2,3.2-17.5,9-24.8
		c12.2-15.4,34.1-19.7,51.6-10.2c17.4,9.5,25.5,30.7,19,49.4c-6.5,18.4-25.8,30-44.9,26.8c-2.2-0.4-3.9-0.7-5.1,2.1
		c-11.2,25-22.5,50-33.8,74.9c-0.3,0.7-0.4,1.5-0.7,2.6c15.1-0.9,29-4.9,42.7-10.3c8.9-3.5,16.4-8.4,22-16.5
		c4.7-6.9,10.5-13.1,15.8-19.6c0.8-0.9,1.4-2,2.5-3.6c-6.3,0-11.9,0-17.6,0c-5.3,0-8.7-3-8.7-7.3c0.1-4.3,3.5-7.2,8.8-7.2
		c10.2,0,20.5,0,30.7,0c3.8,0,7.1,0.6,8.9,4.4c1.8,3.7-0.1,6.5-2.3,9.3c-37.3,45.9-74.6,91.8-111.9,137.7
		c-9.6,11.8-19.2,23.6-28.7,35.5c-1.1,1.3-2,3.2-2,4.9c-0.1,44.1-0.1,88.1-0.1,132.2c0,0.4,0.1,0.8,0.2,2c1.4,0,2.9,0,4.4,0
		c16.8,0,33.6,0.1,50.3,0c4.2,0,7.7,0.7,9.2,5.1c1.5,4.6-1.3,7.1-4.6,9.4C278.7,495.7,234,495.7,189.4,495.7z M126.2,170.1
		C170,224,213.1,277.1,256.4,330.4c27.8-34.3,55.3-68.1,83.6-103c-14.5,4.4-27.9,7.1-41.8,7.3c-1,0-2.4,1.2-3,2.2
		c-1.6,3-2.8,6.2-4.4,9.2c-1.9,3.5-5.7,4.6-9.1,3.1c-3.6-1.6-5.2-5.3-3.8-9.2c0.7-2,1.6-3.9,2.5-6c-8.2-2-16.4-3.7-24.4-5.9
		c-17.2-4.7-34.3-9.2-52.4-7.4c-4.6,0.4-7.9-2.8-8.2-6.9c-0.2-4.1,2.8-7.1,7.5-7.6c16.7-1.7,32.8,1.4,48.8,5.6
		c10.4,2.8,21,4.9,31.5,7.3c2.8,0.7,4.2-0.4,5.4-3.1c6.3-14.3,12.8-28.5,19.2-42.7c0.5-1.1,0.8-2.2,1.2-3.5
		C248.1,170.1,187.6,170.1,126.2,170.1z"/>
	<path d="M65.9,169.9c-1.6,0-3.1,0.1-4.7,0c-3.9-0.3-6.6-3.2-6.7-6.9c-0.1-3.8,2.4-7,6.3-7.4c3.5-0.3,7.1-0.3,10.6,0
		c4.1,0.3,6.7,3.6,6.5,7.6c-0.2,3.8-2.9,6.5-6.9,6.8C69.3,170,67.6,169.9,65.9,169.9z"/>
	<path d="M118.1,118c-0.1,2,0,4-0.3,5.9c-0.6,3.7-3,5.7-6.8,5.9c-3.7,0.1-6.6-1.8-7.1-5.4c-0.5-4-0.5-8.2-0.1-12.3
		c0.4-3.7,3.7-5.9,7.3-5.7c3.6,0.2,6.3,2.7,6.7,6.5c0.2,1.7,0,3.4,0,5.1C118,118,118.1,118,118.1,118z"/>
</g>
</svg>
