<?xml version="1.0" encoding="utf-8"?>
<!-- Generator: Adobe Illustrator 27.0.0, SVG Export Plug-In . SVG Version: 6.00 Build 0)  -->
<svg version="1.1" xmlns="http://www.w3.org/2000/svg" xmlns:xlink="http://www.w3.org/1999/xlink" x="0px" y="0px"
	 viewBox="0 0 512 512" style="enable-background:new 0 0 512 512;" xml:space="preserve">
<g id="Layer_2">
</g>
<g id="Layer_3">
	<path d="M168.3,495.7c-13-4.6-18.6-13.7-19.1-27.6c-1.7-44.9-4.2-89.7-6.4-134.5c-2.5-51.4-5-102.7-7.5-154.1
		c-1.4-28.2-2.9-56.5-4.3-84.7c-0.2-4-0.5-8.2,0.2-12.1c2.1-12.1,12-20,24.9-20c55,0,110-0.1,165,0.1c4.2,0,6.1-1.2,7.8-5.1
		c7-15.9,19.5-25.7,36.3-29.3c16.2-3.4,32.6-5.9,49-8.4c7-1.1,14.2-1.6,21.3-1.9c10.4-0.5,16.6,6.8,13.7,16.8
		c-5.6,19.7-11.4,39.3-17.8,58.7c-3.4,10.3-8.7,19.9-16.8,28.1c1.5,2.2,3,4.3,4.3,6.6c9.2,16.4,18.6,32.6,27.5,49.2
		c4.7,8.8,0,17.9-9.9,19c-20.8,2.3-41.7,4.2-62.5,6c-3,0.3-4,1.1-4.1,4c-1.2,27.3-2.5,54.6-3.8,81.9c-1.8,36.1-3.6,72.3-5.3,108.4
		c-1,21.6-2.1,43.1-3.1,64.7c-0.1,2.5-0.2,5-0.2,7.5c-0.2,13.5-6.4,22.7-19.5,26.8C281.4,495.7,224.9,495.7,168.3,495.7z M147.8,137
		c4.8,99.3,9.6,197.9,14.4,296.9c1.9,0.1,3.4,0.2,4.9,0.3c3.9,0,7.8-0.1,11.7,0c5.3,0.1,8.4,2.9,8.4,7.3c0,4.4-2.7,7-7.9,7.4
		c-2.2,0.2-4.4,0.1-6.5,0.1c-3.2,0-6.4,0-9,0c0,6.9-0.1,12.9,0,18.9c0.2,10.7,3.3,13.7,14.2,13.7c50.2,0,100.4,0,150.6,0
		c1.6,0,3.1,0.1,4.7-0.1c5.6-0.6,9-4.2,9.3-9.8c0.3-5.4,0.7-10.9,0.9-16.3c0.2-6.4,0.2-6.4-6.1-6.4c-41.5,0-83,0-124.5,0
		c-8.1,0-11.8-2.3-11.9-7.3c-0.1-5.1,3.7-7.5,12.1-7.5c41.7,0,83.3,0,125,0c2,0,3.9,0,6.4,0c3.1-64.7,6.3-128.8,9.4-192.7
		c-8.9,7.2-17.5,14.1-26.2,21.2c4.8,10.8,3.8,16.4-5.1,25.3c-6.3,6.3-12.4,12.6-18.8,18.7c-7.8,7.4-18.2,7.3-25.9-0.2
		c-7.1-6.9-14.1-14-21.1-21.1c-4-4.1-6.1-9.1-5.3-14.8c0.4-2.8,1.6-5.6,2.5-8.6c-1.8-1-3.5-2-5.2-3.1
		c-38.8-23.1-51.2-74.2-27.2-112.2c4.4-6.9,7.9-7.6,14.4-2.8c38.4,28.1,76.7,56.2,115.1,84.3c0.9,0.7,1.9,1.2,3.4,2.2
		c1.5-31.4,3-62.1,4.4-93.4c-2.6,0-4.3,0-6,0c-19.1,0-38.2,0-57.4,0c-1.9,0-3.8,0.1-5.6-0.1c-3.9-0.6-6.1-3-6.2-6.9
		c-0.1-4,2.2-6.4,5.9-7.2c1.3-0.3,2.8-0.1,4.2-0.1c20.1,0,40.1,0,60.2,0c1.7,0,3.3,0,5.5,0c0.6-10.9,1.3-21.2,1.6-31.6
		c0.4-10.6-2.8-13.8-13.3-13.8c-30.5,0-60.9,0-91.4,0c-33.1,0-66.2,0-99.3,0c-8.3,0-12.3,4.4-11.7,12.6c0.3,4,0.4,8.1,0.6,12.1
		c0.4,6.8,0.8,13.5,1.2,20.6c2.3,0,4.1,0,6,0c35.3,0,70.6,0,105.9,0c1.4,0,2.8-0.1,4.2,0.1c3.8,0.4,6.7,3.5,6.7,7.2
		c0,3.6-2.8,6.7-6.7,7.1c-1.5,0.2-3.1,0.1-4.7,0.1c-34.8,0-69.6,0-104.5,0C152.3,137,150.5,137,147.8,137z M405.3,110.3
		c10-9.8,27.4-56.5,28.9-77c-1.4,0-2.8-0.1-4.1,0c-13,1.4-26,2.4-38.8,4.6c-10.5,1.8-20.9,4.6-31,7.8c-8.1,2.6-13.4,9-17.5,17.6
		c13.1-2,23.4,1,30.8,11.9c0.9-5.9,1.3-11.3,1.8-16.8c0.5-4.9,3.2-7.6,7.2-7.6c4.1-0.1,6.7,2.4,7.5,7.3c0.1,0.7,0.2,1.4,0.4,2.8
		c4.2-3.5,7.9-6.8,11.8-9.8c3.9-3,8-2.5,10.7,1c2.5,3.3,2,7-1.6,10.3c-3.6,3.3-7.3,6.4-11.1,9.7c0.8,0.5,1,0.8,1.3,0.8
		c5.5,1.4,8.1,4.2,7.4,8.3c-0.6,4.2-4,6.5-9.4,6.2c-4-0.2-8-0.7-12.1-0.9c-4.7-0.3-9.6,2.9-11.6,7.9
		C387.3,96.4,397.3,101.1,405.3,110.3z M231.8,159c-12.7,20.4-12.6,60.8,19.5,84.1c30.6,22.2,68.7,12.2,85.6-7.2
		c-4-2.9-7.9-5.8-11.7-8.6c-20.9,17.8-46.8,16.1-63.5,4.7c-9-6.2-15.5-14.3-19.4-24.4c-5-13.4-4.3-26.7,1.3-40
		C239.5,164.7,235.7,161.9,231.8,159z M432.7,183c-0.8-2.2-1.1-3.1-1.5-3.8c-7.9-14.1-15.4-28.4-23.9-42.1
		c-4.7-7.6-10.9-14.3-16.9-20.9c-3.9-4.3-9.5-5.9-15.5-6.9c-0.5,10.9-1,21-1.4,31.8c5.2-1.6,9.7-3.2,14.4-4.4c3.9-1,7.2,0.4,8.7,4.3
		c1.5,3.8,0.2,7-3.4,9.1c-0.9,0.5-1.7,1-3.1,1.8c4.5,2.4,8.5,4.4,12.5,6.5c4.9,2.7,6.6,6.6,4.5,10.6c-2.1,3.9-6.3,4.8-11.3,2.3
		c-4.1-2-8.1-4.1-12.8-6.6c1,5.6,4.7,11-0.6,14.6c-2.5,1.7-6.6,1-10,1.4c-0.2-0.5-0.4-0.9-0.6-1.4c-0.2,2.7-0.4,5.3-0.6,9.5
		C391.9,186.9,412,185,432.7,183z M256.1,176.8c-6.6,15-0.4,34,13.9,43.3c13.2,8.7,33.3,7.7,42.3-2.2
		C293.7,204.3,275.1,190.7,256.1,176.8z M269.5,268.1c-0.5,0.5-2.5,1.4-2.9,2.7c-0.4,1.4,0.1,3.8,1.2,4.9
		c6.4,6.7,13.1,13.2,19.7,19.8c2.3,2.3,4.6,2.2,6.8-0.1c6.6-6.6,13.3-13.1,19.6-19.9c1-1.1,1.5-4.1,0.8-5.2
		c-0.9-1.3-3.4-2.3-5.2-2.2c-8.5,0.4-16.9,1.6-25.4,1.9C279.7,270.2,275.3,268.9,269.5,268.1z"/>
	<path d="M193.8,340.3c-11.8,0.1-19.3-5.8-20.9-14.8c-2.2-12.5-4.3-25.1-6.2-37.6c-1.4-9.1,5.2-18,14.6-19.7
		c12.5-2.3,25.1-4.4,37.6-6.3c9.1-1.4,18.1,4.9,19.9,14.4c2.5,12.8,4.5,25.7,6.3,38.6c1.1,8.3-4.2,16.8-12.3,18.6
		C219.1,336.3,205.1,338.3,193.8,340.3z M221.5,276.1c-12.6,2.1-24,4.2-35.5,5.9c-3.8,0.6-5.1,2.4-4.5,6c1.9,11.3,3.8,22.6,5.7,33.9
		c0.5,3,2.3,4.2,5.3,3.7c11.3-1.9,22.6-3.8,33.9-5.7c3.4-0.6,4.7-2.5,4.2-5.9c-1.9-11.3-3.7-22.6-5.8-33.9
		C224.4,278.6,222.4,277.3,221.5,276.1z"/>
	<path d="M317.8,373.1c-2.4,4.7-3.9,9.4-6.9,12.8c-6,6.9-12.7,13.2-19.3,19.6c-7.7,7.3-17.9,7.3-25.6,0
		c-6.6-6.3-13.1-12.8-19.5-19.4c-7.3-7.6-7.3-17.9,0-25.5c6.3-6.6,12.8-13.1,19.5-19.4c7.6-7.2,17.9-7.3,25.5,0
		c6.6,6.3,13.3,12.7,19.4,19.5C313.8,363.8,315.3,368.4,317.8,373.1z M302,373.3c-0.7-1.3-1-2.3-1.7-3.1
		c-6.1-6.2-12.2-12.4-18.4-18.5c-2.2-2.2-4.4-1.7-6.5,0.4c-5.8,5.9-11.6,11.7-17.5,17.5c-2.5,2.5-2.5,4.7,0,7.2
		c5.8,5.7,11.5,11.4,17.1,17.1c2.6,2.7,4.9,2.6,7.5-0.1c5.5-5.7,11.2-11.2,16.8-16.8C300.4,376,301.1,374.6,302,373.3z"/>
</g>
</svg>
