<?xml version="1.0" encoding="utf-8"?>
<!-- Generator: Adobe Illustrator 27.0.0, SVG Export Plug-In . SVG Version: 6.00 Build 0)  -->
<svg version="1.1" xmlns="http://www.w3.org/2000/svg" xmlns:xlink="http://www.w3.org/1999/xlink" x="0px" y="0px"
	 viewBox="0 0 512 512" style="enable-background:new 0 0 512 512;" xml:space="preserve">
<g id="Layer_2">
</g>
<g id="Layer_3">
	<path d="M125,495.7c-4.7-1.5-9.5-2.6-14-4.6c-22.3-9.9-33.9-31.3-31.5-57.4c0.7-7.6,1.4-15.2,1.9-22.7c0.1-1.4-0.3-3.2-1.1-4.2
		c-25.2-33-26.1-67.4-5.9-104c-4.8-4.7-10-9.7-15.1-14.8c-10.4-10.4-10.4-22.4-0.1-32.7c11.6-11.7,23.3-23.3,34.9-35
		c7.9-7.9,7.1-21.9-1.2-29.3c-5.7-5-11.7-10-16.1-16c-19-25.9-22.4-54.1-8.2-83C82.7,63.1,107,48,139.2,47.3
		c32.8-0.6,65.6-0.1,98.4-0.3c2.3,0,5.1-1.2,6.7-2.8C278.1,9.7,333.9,9.6,368.2,44c1.6,1.6,4.1,3,6.2,3.1
		c32.5,1.4,60.9,22.2,71.9,52.7c11,30.4,2.2,64.6-22.1,86.3c-1.2,1-2.3,2-3.9,3.5c1.5,0.8,2.5,1.4,3.7,1.9c4.5,1.8,9,3.4,13.4,5.4
		c16.8,7.5,22.7,18.1,20.2,36.5c-0.6,4.6-1.1,9.3-2.1,13.8c-2.2,9.4,1.8,17.3,6.4,24.8c3.9,6.3,9.1,11.8,13.2,18
		c5.1,7.8,6.5,16.4,3,25.4c-1.5,3.9-5,5.6-8.5,4.6c-3.7-1.1-6.3-4.5-5-8.2c2.7-7.7-0.4-13.6-4.8-19.4c-1.6-2.1-3.3-4.1-5.3-6.7
		c-1.5,1.4-2.8,2.6-4,3.8c-8.8,8.8-17.6,17.5-26.3,26.4c-1.1,1.2-2.3,3.2-2.1,4.7c2.2,27.1,4.7,54.2,7,81.2
		c10.1-1.8,15.3-7.7,14.7-17.5c-0.5-8.7-2-17.3-2.9-25.9c-0.7-7.8,1-15.1,5.4-21.7c2.6-3.9,6.4-5.1,10-3c3.5,2,4.7,6.2,2.2,10.1
		c-4.1,6.3-3.7,13-2.9,19.8c0.8,7.2,2,14.5,2.4,21.7c0.7,11.9-4.9,20.5-15.1,26.3c-1.4,0.8-2.7,1.5-4.1,2.1c-8.6,4-8.6,4-7.5,13.6
		c1,9.4,2.1,18.9-0.6,28.2c-6.1,21.1-20,34.1-41.4,39.2c-1,0.2-2,0.6-3,0.9C299.1,495.7,212,495.7,125,495.7z M83.7,385
		c0.7-6.7,1.1-13.2,2-19.6c0.5-4.3,3.8-7,7.6-6.6c4,0.4,6.7,3.8,6.4,8.3c-0.3,4.2-0.8,8.4-1.1,12.5c-1.7,20.3-4,40.5-5,60.8
		c-1.1,23.2,16.5,41.1,39.8,41.2c81.6,0.1,163.2,0.1,244.7,0c23.7,0,41-18.3,39.8-42.1c-0.6-11.6-1.9-23.2-2.9-34.8
		c-2.6-30.3-5.2-60.7-7.8-91c-3-34.7-5.9-69.3-9.1-104c-1.3-13.7,3.7-23.7,14.3-32.3c19.5-15.9,27.6-37,23.4-61.8
		c-5.6-32.5-32.3-54.3-65.4-54.4c-27.8,0-55.6,0-83.4,0c-49.1,0-98.2-0.2-147.3,0.1c-42.7,0.2-73.5,40.2-63,81.5
		c3.8,15,12.2,27,24.5,36.4c9.1,7,13.4,16.2,12.4,27.6c-2.9,35.1-6.1,70.2-9.1,105.4c-0.6,7-1.1,13.9-1.9,20.9
		c-0.5,4.7-3.5,7.3-7.6,7.1c-4.2-0.3-6.6-3.2-6.4-8.1c0.1-2.9,0.2-5.9,0.8-8.8c0.8-4.2-0.3-7.2-4.1-9.1
		C71.2,333.4,71.5,367.8,83.7,385z M96.4,239.7c-0.4-0.2-0.8-0.4-1.2-0.6c-8.7,8.8-17.4,17.5-26.1,26.3c-4.4,4.4-4.3,7.9,0,12.4
		c6.3,6.4,12.7,12.7,19.1,19.1c0.8,0.8,1.8,1.4,3,2.3C93,278.8,94.7,259.3,96.4,239.7z M420.1,299.2c1.2-0.9,2-1.4,2.6-2
		c6.6-6.6,13.2-13.1,19.8-19.8c4.2-4.3,4.1-7.6-0.2-12c-7.2-7.3-14.5-14.5-21.7-21.8c-1.6-1.6-2.8-3.6-4.1-5.4
		c-0.5,0.4-1,0.8-1.5,1.2C416.6,259.1,418.3,278.8,420.1,299.2z M263.8,46.9c28.6,0,56.8,0,85.3,0C328,28,284.1,28,263.8,46.9z
		 M441.9,245c0.7-7.6,1.5-13.7,1.9-19.8c0.4-5.8-2.2-10.4-7.4-12.9c-7.8-3.7-15.8-6.9-23.7-10.4c-0.4,0.2-0.9,0.5-1.3,0.7
		c0.9,4.9,0.3,11,3.1,14.4C422.5,226.6,431.9,235,441.9,245z"/>
	<path d="M255.7,466.9c-40.1,0-80.2,0-120.3,0c-18.1,0-28.5-10.8-27.1-28.9c2.3-30,5.1-60,7.8-90.1c2.3-26.8,4.7-53.5,7-80.3
		c1.7-19.2,3.1-38.4,5-57.6c1.7-17.7-4.4-31.9-18.4-42.8c-20.1-15.8-26.2-41.4-14.8-63.4c9-17.2,23.6-26.5,42.9-27.6
		c10.8-0.6,21.8-0.2,32.6-0.1c5,0,8,2.9,8,7.2c0,4.3-3,6.9-8.1,7c-9.6,0.1-19.3,0-28.9,0c-17,0.1-30.7,9.5-35.9,24.6
		c-5.2,15-0.4,30.6,12.9,41.1c18.1,14.4,25.9,32.9,23.8,56c-3.8,41.1-7.1,82.3-10.7,123.5c-2.9,33.9-5.9,67.8-9,101.6
		c-1,11.4,2.6,15.5,13.9,15.5c79.6,0,159.1,0,238.7,0c10.8,0,14.6-3.7,13.7-14.3c-2.5-30.3-5.2-60.7-7.8-91
		c-2.3-26.9-4.7-53.8-7.1-80.8c-1.6-18.6-3.1-37.1-4.8-55.7c-2-22.7,6.2-41,24-55c12.1-9.6,16.9-22.1,13.7-37.2
		c-3.7-17.2-18.1-28.3-36.2-28.4c-29.4-0.1-58.7,0-88.1,0c-25,0-50,0-75.1,0c-1.6,0-3.1,0.1-4.7-0.2c-3.5-0.6-6-3.1-5.6-6.4
		c0.3-2.5,2.4-5,4.4-6.9c1-0.9,3.2-0.7,4.9-0.7c54.7,0,109.4-0.1,164.1,0c25.2,0,45.7,16.4,50.3,40.7c3.9,20.6-2.9,37.6-19.5,50.6
		c-12.5,9.8-18.8,22.5-18.3,38.3c0.2,6.8,1,13.6,1.6,20.4c2.4,27.2,4.7,54.5,7.1,81.7c2.7,30.5,5.4,61,8,91.4
		c1.2,13.5,2.5,26.9,3.3,40.4c1,15.8-9.8,27.1-25.7,27.1C336.8,466.9,296.3,466.9,255.7,466.9z"/>
	<path d="M219.3,184.5c0.1,12-9.5,21.6-21.5,21.6c-12,0-21.6-9.6-21.6-21.6c0-11.7,9.5-21.3,21.2-21.5
		C209.3,162.8,219.2,172.6,219.3,184.5z M205.1,184.8c0.1-4-3.2-7.5-7.3-7.6c-3.8-0.1-7.2,3-7.5,6.9c-0.3,4,2.9,7.5,7,7.7
		C201.6,192,205,188.9,205.1,184.8z"/>
	<path d="M335.1,315c0,12.1-9.5,21.5-21.6,21.5c-11.9,0-21.6-9.9-21.5-21.7c0.1-11.6,9.9-21.3,21.5-21.3
		C325.4,293.3,335.1,303,335.1,315z M320.8,315c0-4.1-3.3-7.5-7.3-7.4c-4,0-7.4,3.6-7.3,7.6c0.1,3.9,3.3,7,7.2,7.1
		C317.6,322.4,320.8,319.2,320.8,315z"/>
	<path d="M263.2,141.3c-3.8,0-7-3.3-7-7.2c0-3.8,2.9-6.7,6.7-6.8c4-0.1,7.2,3,7.3,6.8C270.3,137.9,266.9,141.3,263.2,141.3z"/>
	<path d="M175.7,358.8c3.8,0.1,7.1,3.5,7,7.3c-0.1,3.9-3.4,6.9-7.4,6.8c-3.8-0.1-6.6-3.1-6.6-6.9C168.6,362,171.8,358.7,175.7,358.8
		z"/>
	<path d="M335,199.2c0,4-3.1,7-7.2,6.9c-3.7-0.1-6.8-3.2-6.9-6.8c-0.1-3.8,3.3-7.2,7-7.2C331.9,192,335.1,195.2,335,199.2z"/>
	<path d="M212,235.5c3.9-0.1,7.2,3.1,7.2,7c0,3.9-3.2,7.1-7.1,7.1c-3.7,0-6.8-3.1-7-6.8C205,239,208.1,235.6,212,235.5z"/>
	<path d="M248,415.8c-4-0.1-7-3.2-6.8-7.2c0.1-3.7,3.2-6.8,6.9-6.8c3.8,0,7.2,3.3,7.1,7.1C255.2,412.8,252,415.9,248,415.8z"/>
</g>
</svg>
