<?xml version="1.0" encoding="utf-8"?>
<!-- Generator: Adobe Illustrator 27.0.0, SVG Export Plug-In . SVG Version: 6.00 Build 0)  -->
<svg version="1.1" xmlns="http://www.w3.org/2000/svg" xmlns:xlink="http://www.w3.org/1999/xlink" x="0px" y="0px"
	 viewBox="0 0 512 512" style="enable-background:new 0 0 512 512;" xml:space="preserve">
<g id="Layer_2">
</g>
<g id="Layer_3">
	<path d="M131,495.7c-3.7-1.3-7.7-2.1-11.1-3.9c-13.1-6.7-20.1-17.7-20.2-32.4c-0.2-38.8-0.1-77.6-0.1-116.4c0-28.6,0.1-57.2,0-85.8
		c-0.1-26.8,10-48.7,31.3-65.2c0.3-0.3,0.7-0.5,1.3-1.1c-5.1-4.7-8.6-10.2-9.9-16.9c-3.4-17.1,7.4-32.1,24.7-33.8
		c5.9-0.6,11.9-0.3,17.8-0.3c17.6,0,35.1,0,52.7,0c0.4,0,0.8-0.1,2-0.3c0-1.4,0-2.9,0-4.4c0-11.6-0.1-23.2,0-34.8
		c0.1-12.1,6.6-21.2,18.1-24.9c14.5-4.7,29.1-9.1,43.7-13.6c9.8-3,18.7-1.2,25.5,6.7c7,8.1,8.9,17.6,5,27.8
		c-2.6,6.9-7.9,11.3-14.9,13.6c-7.7,2.5-15.4,4.7-23,7.3c-1.2,0.4-2.7,2.1-2.8,3.2c-0.3,6.2-0.1,12.4-0.1,19.4c1.8,0,3.5,0,5.1,0
		c27.3,0,54.7-0.1,82,0c16.1,0.1,27.1,8.8,29.3,23.3c1.7,10.8-1.5,20.2-10.1,27.7c10.3,7.6,18.3,16.8,24,27.9c3,5.9,3,5.8,9.6,4.5
		c12.1-2.4,24.2-3.1,36.2,0.1c24,6.2,37.9,22.8,44.9,45.6c9.8,31.7,5.7,62.8-6.5,93c-11,27.3-28.2,49.6-54.2,64.3
		c-6.7,3.8-14,6.6-21.4,10c0,6.9,0,14.3,0,21.7c-0.1,19.5-11,33-30,37.2c-0.5,0.1-1,0.4-1.5,0.7C295.9,495.7,213.4,495.7,131,495.7z
		 M234.1,256.1c6.5-1.4,12.7-3,18.9-4.1c3-0.5,3.8-1.9,3.8-4.8c-0.2-10.1-0.1-20.1,0-30.2c0.1-4.2,2.9-7.1,6.8-7.2
		c3.8-0.1,6.9,2.6,7.4,6.7c0.2,1.7,0.1,3.4,0.1,5.1c0,8.6,0,17.2,0,26.2c1.8-0.3,3-0.4,4.2-0.7c26.4-5.5,53.1-8.4,80.2-7.1
		c5.2,0.3,10.5,0.6,15.7,1.2c4.2,0.5,6.7,3.9,6.3,7.7c-0.4,3.8-3.4,6.4-7.6,6.4c-2,0-4-0.1-5.9-0.3c-23.3-2-46.5-1-69.4,3.3
		c-23.2,4.4-46.2,9.6-69.4,14.3c-30.4,6.2-60.9,7.9-91.6,2.1c-6.4-1.2-12.8-2.7-19.4-4.1c-0.1,1-0.2,1.5-0.2,2.1
		c0,62.3,0,124.6,0,187c0,12.1,9.6,21.6,21.7,21.6c79.3,0.1,158.6,0.1,238,0c12.4,0,21.8-9.4,21.8-21.9c0.1-69,0.3-138-0.2-206.9
		c-0.2-24.2-12.3-42.2-33.3-54c-2.2-1.2-5.1-1.9-7.6-1.9c-38.5-0.1-77.1-0.1-115.6-0.1c-1.5,0-3,0-4.7,0
		C234.1,216.5,234.1,236.1,234.1,256.1z M410.2,264.1c1.1,0,1.9,0.1,2.7,0c24.8-2.4,43.5,10.1,48.7,34.3c6.7,31.1-3.5,57.4-26,79.3
		c-4.1,3.9-7.9,4-11.1,0.6c-3.1-3.3-2.7-7.3,1.4-11.1c10.4-9.6,17.3-21.3,20.9-34.8c3.5-13.1,4.4-26.3-2-38.9
		c-6.3-12.4-22.4-18.7-34.7-13.8c0,46.7,0,93.3,0,141c5.4-2.7,10.5-4.7,15.2-7.5c42.7-25.1,68.3-90.3,54.3-137.9
		c-10.8-36.4-41.2-44.9-70.4-36.4C409.4,247.2,409.8,255.6,410.2,264.1z M219.4,196.7c-1.1-0.1-1.7-0.2-2.2-0.2
		c-21.2,0-42.5,0-63.7,0c-1.6,0-3.4,0.5-4.8,1.3c-21.5,11.5-32.7,29.6-34.7,53.8c-0.2,3,0.7,4.1,3.6,4.9c32.9,8.9,66,9.3,99.3,2.9
		c1-0.2,2.4-1.9,2.5-2.9c0.3-4.8,0.1-9.6,0.1-14.4C219.4,227,219.4,212,219.4,196.7z M271.3,182c30.3,0,60,0.1,89.7-0.1
		c5.5,0,9.6-3.1,11.6-8.5c3.9-10.2-2.8-19.2-14.4-19.2c-27.7-0.1-55.5,0-83.2,0c-1.2,0-2.4,0.2-3.7,0.3
		C271.3,163.9,271.3,172.7,271.3,182z M219.3,154.2c-7.1,0-13.9,0-20.7,0c-15.7,0-31.4,0-47.1,0c-5.7,0-10.7,1.4-13.7,6.8
		c-5.4,9.8,1,21,12.3,21c22.3,0.1,44.7,0,67,0c0.7,0,1.3-0.2,2.1-0.3C219.3,172.7,219.3,163.8,219.3,154.2z M233.9,139.5
		c7.8,0,15.1,0,22.7,0c0-8.1,0-15.9,0-23.6c0-7.7,0.9-8.9,8.2-11.1c9.1-2.7,18.1-5.4,27.1-8.4c6.1-2,8.8-7.6,6.9-13.5
		c-1.9-6-7.2-9.1-13.3-7.2c-14.7,4.4-29.4,9-44.1,13.6c-4.3,1.4-7.3,4.5-7.4,8.9C233.7,111.9,233.9,125.6,233.9,139.5z M256.3,181.9
		c0-9.4,0-18.3,0-27.4c-7.6,0-14.9,0-22.2,0c0,9.3,0,18.2,0,27.4C241.6,181.9,248.8,181.9,256.3,181.9z"/>
	<path d="M306.8,313.1c0-16,13-28.9,28.9-28.9c15.9,0.1,28.9,13.2,28.9,29.1c-0.1,15.9-13.1,28.8-29.1,28.7
		C319.5,342,306.8,329.2,306.8,313.1z M335.7,327.6c8,0,14.6-6.5,14.6-14.5c0-7.9-6.7-14.6-14.6-14.6c-8,0-14.5,6.5-14.4,14.6
		C321.2,321.3,327.5,327.6,335.7,327.6z"/>
	<path d="M166.4,390.1c16,0.1,28.8,13,28.7,29c-0.1,16-13.2,28.9-29.1,28.8c-15.8-0.1-28.9-13.4-28.8-29.2
		C137.3,402.8,150.4,390.1,166.4,390.1z M180.7,419c0-8.1-6.4-14.5-14.5-14.5c-8,0-14.6,6.5-14.6,14.5c0,7.9,6.7,14.6,14.6,14.6
		C174.1,433.6,180.7,427,180.7,419z"/>
	<path d="M256.6,346c-3.9,0-7.3-3.5-7.2-7.4c0.1-3.8,3.4-6.9,7.2-6.9c4.1,0,7.2,3.2,7.1,7.4C263.5,343,260.4,346.1,256.6,346z"/>
	<path d="M298.8,382.8c3.8,0.1,7,3.4,7.1,7.1c0,3.9-3.4,7.3-7.3,7.2c-4.1-0.1-7.1-3.4-6.9-7.5C291.8,385.8,295,382.7,298.8,382.8z"
		/>
	<path d="M355.3,415.8c-4,0.1-7.4-3.3-7.3-7.2c0.1-3.8,3.3-7,7.1-7.1c3.8-0.1,7,3,7.2,6.9C362.4,412.5,359.4,415.8,355.3,415.8z"/>
	<path d="M242.6,414.5c-0.3,4.1-3.6,6.9-7.8,6.5c-3.9-0.3-6.6-3.6-6.3-7.5c0.3-3.8,3.6-6.8,7.3-6.7
		C239.8,407,242.8,410.4,242.6,414.5z"/>
	<path d="M289.3,448.2c-0.1,4-3.1,6.8-7.1,6.8c-4.1,0-7.2-3.2-7.1-7.3c0.1-3.8,3.3-6.9,7.1-6.9C286.2,440.8,289.4,444.1,289.3,448.2
		z"/>
	<path d="M173.6,324.5c4,0.1,7.1,3.3,6.9,7.4c-0.2,3.9-3.2,6.8-7.2,6.7c-4.1-0.1-7.1-3.3-7-7.4C166.5,327.4,169.7,324.4,173.6,324.5
		z"/>
</g>
</svg>
