<?xml version="1.0" encoding="utf-8"?>
<!-- Generator: Adobe Illustrator 27.0.0, SVG Export Plug-In . SVG Version: 6.00 Build 0)  -->
<svg version="1.1" xmlns="http://www.w3.org/2000/svg" xmlns:xlink="http://www.w3.org/1999/xlink" x="0px" y="0px"
	 viewBox="0 0 512 512" style="enable-background:new 0 0 512 512;" xml:space="preserve">
<g id="Layer_2">
</g>
<g id="Layer_3">
	<path d="M17.2,455.1c3.8-8.2,10.3-10.7,19.2-10.6c45,0.3,90,0.2,135.4-0.6c-1.2-0.6-2.4-1.3-3.6-1.9
		c-51.8-24.8-85.9-64.5-101.8-119.8c-5.6-19.7-6.7-39.8-6.4-60.1c0.2-9.7,0-19.3,0.1-29c0.1-11.2,7.1-18.3,18.3-18.7
		c1.1,0,2.2,0,3.3,0c108.5,0,217.1,0,325.6,0.1c4.4,0,9.1,0.8,13,2.7c6.2,3.1,8.7,9.1,8.7,15.9c0.1,8.1,0,16.2,0,25
		c4.3,0,8.2,0,12.2,0c26.6,0.3,48.3,16.9,53.1,41.7c3.7,19-0.1,37.4-8.9,54.3c-18.9,36.4-49.3,54.8-90.3,55.6
		c-7.5,0.1-15-0.1-22.4,0.1c-1.7,0-3.9,0.5-5.1,1.6c-14.8,13.1-31.2,23.7-49.3,31.6c-0.3,0.2-0.6,0.6-1.3,1.5c2.2,0,3.8,0,5.5,0
		c44.1,0,88.1,0,132.2,0c12.6,0,18.2,6.3,16.8,18.9c-2,18.1-17.3,31.8-35.5,31.8c-127.2,0-254.4-0.2-381.7,0.2
		c-16.6,0.1-32.8-12.1-36.2-28.4c-0.2-0.9-0.6-1.7-0.9-2.6C17.2,461.4,17.2,458.3,17.2,455.1z M175.1,228.5c0,10.4,0,20.2,0.1,30
		c0,0.9,0.6,2,1.3,2.7c10.1,9.9,20.5,19.5,30.1,29.9c2.8,3,4.7,8,4.8,12.1c0.5,19.3,0.3,38.6,0.2,57.9c-0.1,10.1-7.3,17.4-17.4,17.4
		c-17.3,0.1-34.6,0.1-51.8,0c-10.1,0-17.6-7.2-17.6-17.2c-0.1-19.5-0.3-38.9,0.2-58.4c0.1-3.9,1.8-8.6,4.4-11.4
		c9.8-10.4,20.3-20.2,30.5-30.2c0.6-0.6,1.3-1.4,1.3-2.2c0.1-10.1,0.1-20.1,0.1-30c-0.9-0.3-1.1-0.5-1.4-0.5
		c-26.9,0-53.9-0.1-80.8-0.1c-3.6,0-4.8,2-4.8,5.4c0.2,10.3,0.7,20.6,0.4,30.8c-0.8,22.5,2.3,44.4,9.2,65.6
		c19.8,61.1,80.3,108.4,144.6,113.5c49.2,3.9,92.7-9.8,129.6-42.8c34.2-30.6,53.3-69.2,56.4-115.1c1.1-16.6,0.6-33.3,0.7-49.9
		c0.1-6.8-0.6-7.5-7.4-7.5c-75.7,0-151.3,0-227,0C178.8,228.5,177.2,228.5,175.1,228.5z M31.6,459c-0.7,12.7,10.3,23.2,23.9,23.2
		c84.5,0,169.1,0,253.6,0c41.7,0,83.5,0,125.2,0c12.9,0,23.4-10.6,23-23.2C315.4,459,173.5,459,31.6,459z M161.1,279.6
		c-7.3,7.1-14.1,13.6-20.6,20.2c-1.1,1.1-1.7,3-1.7,4.5c-0.1,18.4,0,36.7-0.1,55.1c0,3.5,1.4,5.1,5,5c16.3-0.1,32.7-0.1,49,0
		c3.6,0,4.9-1.5,4.9-5.1c-0.1-18.4,0-36.7-0.1-55.1c0-1.2-0.1-2.8-0.8-3.5c-7-6.9-14.2-13.7-21.6-20.7c0,5.7,0,11.4,0,17.1
		c0,5.4-2.7,8.5-7.2,8.4c-4.2-0.1-6.8-3.2-6.8-8.3C161,291.7,161.1,286,161.1,279.6z M429.1,283.2c4.2,0,8.4,0,12.6,0
		c17.4,0.1,29.1,12.2,28.8,29.7c-0.7,38.8-32.5,71.3-71.5,71.8c-8.7,0.1-10.7,5.8-15.8,11.2c5.1,0,9,0.1,12.8,0
		c42.6-0.8,76.2-28.7,84.1-70c2.5-12.8,2.4-25.4-5.5-36.8c-11.2-16-27.5-18.1-45.5-16.4C429.1,276.1,429.1,279.5,429.1,283.2z
		 M401.9,370.1c29-1.3,56.5-28.7,54.3-61.4c-0.4-5.9-5.7-10.9-11.9-11.4c-5.5-0.4-11.1-0.1-16.9-0.1
		C424,323.4,415.6,347.4,401.9,370.1z"/>
	<path d="M176,187.3c0.3-7.9,2.9-15.1,8.3-20.7c13.6-14.1,12.8-25.4,0.1-39.4c-12.2-13.5-11.6-31.6,0.3-45.5c5.1-6,9.6-12,10-20.5
		c0.2-3.7,3.2-5.5,6.9-5.5c3.7,0,6.5,3,6.5,7.1c0,7.2-1.8,13.9-6.3,19.6c-2.3,3-4.8,5.7-7.1,8.7c-6.8,8.8-6.8,18.2,0,27
		c1.8,2.3,3.8,4.5,5.7,6.8c10.5,13,10.5,30.4,0.2,43.5c-3.1,3.9-6.2,7.8-8.8,12c-1.3,2.1-1.6,5-1.9,7.6c-0.6,5.1-3.3,8-7.5,7.8
		C178.3,195.6,175.9,192.5,176,187.3z"/>
	<path d="M260.5,64c-0.1,7.1-2.3,13.4-6.6,19c-1.3,1.7-2.7,3.4-4.1,5.1c-10.3,12.3-10.4,21.1,0,33.1c5.9,6.9,10.5,14.2,10.8,23.6
		c0.3,8.4-1.5,16-6.8,22.7c-1.5,2-3.1,3.9-4.8,5.8c-3.9,4.5-6.6,9.3-6.8,15.4c-0.2,4.6-3.5,7.5-7.5,7.1c-3.9-0.3-6.3-3.3-6.3-7.8
		c0.1-7.1,2.1-13.5,6.4-19.1c2-2.6,4.2-5,6.2-7.6c7.7-9.7,7.7-19.2,0.1-28.9c-1.4-1.8-3-3.5-4.5-5.4c-11.2-13.8-11.3-31.3,0.1-44.9
		c5.3-6.3,10.2-12.4,10.5-21.2c0.1-3.6,4-5.8,7.6-5.2C258.6,56.4,260.7,59.4,260.5,64z"/>
	<path d="M280.7,186.3c0.3-6.9,2.7-14,8.1-19.5c14.2-14.7,12.7-26,0.3-39.8c-12-13.3-11.5-31.3,0.1-45.1c5.2-6.2,9.9-12.2,10.2-20.9
		c0.2-3.7,3.3-5.5,7-5.3c3.7,0.1,6.4,3.1,6.4,7.3c0,6.8-1.7,13.3-5.8,18.8c-2.1,2.9-4.5,5.6-6.7,8.4c-7.9,9.7-7.8,19.5,0.1,29.2
		c1.1,1.3,2.2,2.6,3.3,3.9c12.5,15,12.5,31.9,0,47.1c-1.8,2.2-4,4.1-5.2,6.6c-1.7,3.4-3.2,7.1-3.8,10.8c-0.9,5.4-3.4,8.4-7.7,8.1
		C282.9,195.5,280.5,192.4,280.7,186.3z"/>
</g>
</svg>
