<svg id="fb3266ce-0ba7-476e-ad17-1d695641354c" data-name="Layer 1" xmlns="http://www.w3.org/2000/svg" viewBox="0 0 1562.28 395.21"><title>cafe-farda-logo</title><path d="M1509.08,296.47h-79.79a.2.2,0,0,0-.21.18v99.16a.24.24,0,0,1-.21.22h-19.81V23.57c0-.11.25,0,.32-.07h.17a.28.28,0,0,1,.15.25A533.06,533.06,0,0,0,1432.58,81c5.1,10.89,10.53,21.49,16.21,31.77,2.17,3.93,4.39,7.79,6.63,11.64a.22.22,0,0,1-.17.32h-22.31a.21.21,0,0,0-.18.32A518,518,0,0,0,1468,179a.2.2,0,0,1-.14.32h-19.74a.22.22,0,0,0-.18.32,646.07,646.07,0,0,0,38.69,54.62.2.2,0,0,1-.17.32h-21a.2.2,0,0,0-.18.32q20.57,31.65,44,61.26A.2.2,0,0,1,1509.08,296.47Z" transform="translate(-44.1 -9.29)" style="fill:#eed99a"/><path d="M1408.66,23.57l-.1,0a.2.2,0,0,0-.08.15,534.83,534.83,0,0,1-45.76,100.66.23.23,0,0,0,.18.32h22.27a.21.21,0,0,1,.18.32A511.58,511.58,0,0,1,1350.12,179a.2.2,0,0,0,.14.32H1370a.22.22,0,0,1,.18.32,628.36,628.36,0,0,1-38.69,54.62.2.2,0,0,0,.18.32h20.95a.2.2,0,0,1,.18.32q-20.5,31.65-43.91,61.26a.2.2,0,0,0,.14.32h79.82a.19.19,0,0,1,.18.18v92.09c-91.63-9.92-163.2-87.74-163.2-182,0-84,56.79-154.93,134-176.45,2.5-.71,5-1.36,7.53-1.93,2-.5,4.11-1,6.21-1.35a178.67,178.67,0,0,1,20.21-2.79c4.89-.43,9.81-.64,14.81-.64Z" transform="translate(-44.1 -9.29)" style="fill:#eed99a"/><path d="M1409,9.29c-108.84,0-197.4,88.56-197.4,197.44s88.56,197.4,197.4,197.4,197.44-88.56,197.44-197.4S1517.82,9.29,1409,9.29Zm100.13,287.18h-79.79a.2.2,0,0,0-.21.18v92.09a183.58,183.58,0,0,1-20,1.11H1409a174.47,174.47,0,0,1-19.92-1.11c-91.63-9.92-163.2-87.74-163.2-182,0-84,56.79-154.93,134-176.45,2.5-.71,5-1.36,7.53-1.93,2-.5,4.11-1,6.21-1.35a178.67,178.67,0,0,1,20.21-2.79c4.89-.43,9.81-.64,14.81-.64h.89c.07,0,.15.07.15.18A527.09,527.09,0,0,0,1432.58,81c5.1,10.89,10.53,21.49,16.21,31.77,2.17,3.93,4.39,7.79,6.63,11.64a.22.22,0,0,1-.17.32h-22.31a.21.21,0,0,0-.18.32A518,518,0,0,0,1468,179a.2.2,0,0,1-.14.32h-19.74a.22.22,0,0,0-.18.32,646.07,646.07,0,0,0,38.69,54.62.2.2,0,0,1-.17.32h-21a.2.2,0,0,0-.18.32q20.57,31.65,44,61.26A.2.2,0,0,1,1509.08,296.47Z" transform="translate(-44.1 -9.29)" style="fill:#254847"/><path d="M1409.06,23.57V389.85H1409a174.47,174.47,0,0,1-19.92-1.11V296.65a.19.19,0,0,0-.18-.18H1309a.2.2,0,0,1-.14-.32q23.34-29.67,43.91-61.26a.2.2,0,0,0-.18-.32h-20.95a.2.2,0,0,1-.18-.32,628.36,628.36,0,0,0,38.69-54.62.22.22,0,0,0-.18-.32h-19.74a.2.2,0,0,1-.14-.32,511.58,511.58,0,0,0,35.23-53.94.21.21,0,0,0-.18-.32H1362.9a.23.23,0,0,1-.18-.32,534.83,534.83,0,0,0,45.76-100.66.2.2,0,0,1,.08-.15l.1,0Z" transform="translate(-44.1 -9.29)" style="fill:#254847"/><circle cx="1303.41" cy="114.02" r="24.35" transform="translate(7.22 484.41) rotate(-21.87)" style="fill:#fff"/><path d="M1557.48,248.23a27.73,27.73,0,0,1-32.3,20.69,27.72,27.72,0,0,0,0-53.9c-.39-.1-.78-.17-1.18-.26a27.74,27.74,0,0,1,33.46,33.47Z" transform="translate(-44.1 -9.29)" style="fill:#fff"/><path d="M373.88,122.52A100.09,100.09,0,0,0,357,321.25l-56,54.17,28.14,29.08L435.65,301.29v-.1a100,100,0,0,0-61.77-178.67Zm44.86,139.23a63.81,63.81,0,0,1-9.41,8.75,60.19,60.19,0,1,1,9.41-8.75Z" transform="translate(-44.1 -9.29)" style="fill:#254847"/><path d="M1088.08,318.38h-78.73a56.19,56.19,0,0,1-56.13-56.13V70.43h40.44V262.25a15.71,15.71,0,0,0,15.69,15.7h78.73a15.71,15.71,0,0,0,15.7-15.7V204L998.27,205,1152.14,55.92l28.14,29-81.11,78.61,45-.47v99.16A56.19,56.19,0,0,1,1088.08,318.38Z" transform="translate(-44.1 -9.29)" style="fill:#254847"/><path d="M191.67,320.2H113.72V279.77h77.95a15.71,15.71,0,0,0,15.7-15.7V185.34a15.71,15.71,0,0,0-15.7-15.7h-49V129.21h49a56.19,56.19,0,0,1,56.13,56.13v78.73A56.19,56.19,0,0,1,191.67,320.2Z" transform="translate(-44.1 -9.29)" style="fill:#254847"/><polyline points="40.43 60.66 40.43 309.99 0 309.99 0 60.66" style="fill:#254847"/><path d="M827.21,120.15a100.09,100.09,0,0,0-80.6,159.28H693.3V90.21L500.56,281l152.25,3.33v35.45H818.65c2.85.28,5.71.38,8.56.38a100,100,0,1,0,0-200ZM652.81,243.88l-56-1.23,56-55.5Zm174.4,35.93a51.54,51.54,0,0,1-6.56-.38,59.52,59.52,0,1,1,6.56.38Z" transform="translate(-44.1 -9.29)" style="fill:#254847"/><path d="M853.84,45.88a35.55,35.55,0,0,1-35.5,35.5,34.61,34.61,0,0,1-17.67-4.8,35.44,35.44,0,0,0,0-61.33,34.61,34.61,0,0,1,17.67-4.8A35.49,35.49,0,0,1,853.84,45.88Z" transform="translate(-44.1 -9.29)" style="fill:#254847"/><circle cx="329.73" cy="36.62" r="35.46" style="fill:#254847"/></svg>