<?xml version="1.0" standalone="no"?>
<!DOCTYPE svg PUBLIC "-//W3C//DTD SVG 20010904//EN"
 "http://www.w3.org/TR/2001/REC-SVG-20010904/DTD/svg10.dtd">
<svg version="1.0" xmlns="http://www.w3.org/2000/svg"
 width="1080.000000pt" height="1080.000000pt" viewBox="0 0 1080.000000 1080.000000"
 preserveAspectRatio="xMidYMid meet">
<metadata>
Created by potrace 1.14, written by Peter Selinger 2001-2017
</metadata>
<g transform="translate(0.000000,1080.000000) scale(0.100000,-0.100000)"
fill="#000000" stroke="none">
<path d="M5105 9834 c-409 -40 -634 -81 -941 -169 -1190 -344 -2202 -1198
-2746 -2315 -224 -460 -361 -930 -425 -1460 -25 -206 -25 -774 0 -980 90 -744
334 -1404 738 -2000 633 -933 1612 -1603 2699 -1844 359 -79 564 -100 975
-101 364 0 486 10 777 61 1378 240 2569 1127 3197 2381 243 486 379 944 448
1513 25 206 25 754 0 960 -142 1172 -667 2156 -1552 2915 -653 560 -1478 914
-2375 1021 -128 15 -693 28 -795 18z m-392 -432 c53 -109 97 -206 97 -215 0
-35 -31 -15 -56 37 l-27 53 -63 -12 c-36 -7 -66 -14 -68 -16 -4 -4 -15 -74
-16 -101 0 -11 -8 -18 -20 -18 -25 0 -25 3 0 245 11 105 20 198 20 208 0 10 8
17 18 17 14 0 42 -48 115 -198z m-338 99 c41 -23 60 -60 90 -178 30 -117 26
-155 -22 -205 -27 -29 -147 -73 -180 -66 -12 2 -30 58 -69 203 -30 110 -54
208 -54 217 0 15 35 30 125 51 29 7 75 -2 110 -22z m-348 -111 c68 -41 86
-134 38 -204 -14 -20 -25 -38 -25 -40 0 -2 32 -25 70 -52 65 -46 87 -81 49
-78 -23 2 -189 123 -189 139 0 7 9 16 20 20 33 10 60 54 60 97 0 49 -43 98
-86 98 -39 0 -104 -21 -104 -34 0 -6 30 -93 67 -194 50 -139 63 -186 54 -195
-8 -8 -14 -8 -25 3 -18 20 -148 387 -144 408 2 9 23 24 48 34 61 23 127 23
167 -2z m-276 -281 c79 -94 145 -177 147 -184 2 -7 -2 -17 -9 -21 -8 -5 -27
10 -54 40 l-41 47 -62 -27 -62 -27 6 -63 c6 -59 5 -64 -13 -64 -17 0 -22 19
-51 208 -36 231 -38 262 -19 262 7 0 78 -77 158 -171z m-331 52 c0 -13 -21
-30 -70 -55 -38 -21 -70 -40 -70 -44 1 -4 18 -37 38 -74 l38 -67 73 40 c40 21
77 37 82 34 22 -14 4 -36 -58 -71 -38 -20 -70 -38 -71 -40 -2 -1 17 -40 42
-87 51 -93 54 -107 28 -107 -13 0 -46 51 -120 186 -56 102 -102 192 -102 199
0 13 154 104 178 105 6 0 12 -8 12 -19z m4020 5 c24 -9 36 -20 38 -36 3 -20 1
-22 -20 -16 -83 26 -96 27 -137 16 -50 -13 -109 -63 -127 -107 -34 -79 -4
-186 63 -228 53 -33 38 -68 -17 -40 -70 36 -123 162 -101 240 14 53 56 120 88
140 63 42 149 54 213 31z m-1554 -75 c834 -112 1568 -474 2159 -1066 696 -695
1085 -1637 1085 -2625 0 -1204 -578 -2328 -1560 -3030 -604 -432 -1309 -667
-2060 -687 -625 -17 -1187 106 -1745 381 -387 191 -690 409 -995 716 -537 540
-897 1232 -1024 1971 -43 245 -51 350 -51 649 0 299 8 404 51 649 127 739 487
1431 1024 1971 305 307 608 525 995 716 428 211 862 332 1335 374 173 15 612
4 786 -19z m1788 -119 c-8 -26 -37 -125 -66 -219 -42 -142 -55 -173 -70 -173
-22 0 -22 12 -3 76 17 55 20 50 -65 101 l-38 23 -43 -39 c-43 -37 -69 -43 -69
-16 0 12 56 65 253 239 70 61 91 75 102 66 12 -10 11 -19 -1 -58z m286 -132
c54 -41 77 -65 74 -75 -9 -23 -21 -19 -84 30 -32 25 -63 45 -68 45 -7 0 -102
-114 -102 -123 0 -2 29 -25 65 -51 64 -47 82 -76 48 -76 -10 0 -45 21 -78 46
l-60 45 -20 -24 c-11 -14 -39 -50 -62 -81 -29 -38 -47 -54 -58 -50 -8 4 -15
10 -15 15 0 14 261 359 272 359 5 0 45 -27 88 -60z m-5020 23 c-1 -10 -30 -39
-66 -66 l-64 -48 41 -57 c23 -31 45 -61 50 -66 4 -5 36 12 71 38 34 26 69 45
77 44 32 -6 19 -28 -44 -72 -36 -26 -65 -51 -65 -55 0 -5 20 -36 45 -70 l45
-62 64 46 c65 46 96 56 96 31 0 -16 -138 -119 -162 -120 -16 -1 -268 327 -268
349 0 13 149 125 167 125 7 0 13 -8 13 -17z m5270 -223 c61 -56 72 -71 60 -79
-17 -11 -23 -8 -97 56 l-49 42 -54 -61 -54 -61 62 -56 c35 -31 62 -62 62 -68
0 -26 -35 -11 -93 38 l-59 52 -46 -53 c-26 -29 -50 -58 -54 -64 -4 -7 18 -32
53 -61 55 -45 76 -85 46 -85 -18 0 -157 119 -157 135 0 7 39 57 88 112 48 55
111 127 141 161 29 34 58 62 65 62 6 0 45 -31 86 -70z m-5513 34 c2 -7 -25
-37 -61 -67 l-65 -55 46 -53 c25 -30 49 -58 54 -63 5 -6 33 11 68 42 63 55 91
65 91 32 0 -11 -3 -20 -7 -20 -5 0 -32 -22 -62 -49 l-55 -48 62 -73 c64 -76
75 -100 45 -99 -20 0 -288 311 -288 332 0 19 137 138 154 134 8 -1 16 -7 18
-13z m-132 -383 c110 -62 191 -115 193 -124 5 -25 -25 -21 -77 9 l-45 25 -49
-49 -49 -50 26 -44 c31 -53 34 -81 9 -76 -18 3 -233 377 -233 404 0 27 37 11
225 -95z m6044 -40 c60 -68 75 -101 47 -101 -8 0 -39 28 -70 62 l-56 61 -52
-48 c-29 -27 -57 -51 -61 -55 -5 -4 17 -36 47 -71 60 -69 64 -77 41 -85 -10
-4 -35 15 -73 56 l-58 63 -69 -61 c-67 -59 -105 -77 -105 -49 0 16 316 297
334 297 7 0 41 -31 75 -69z m-6389 -30 c0 -6 -11 -31 -25 -57 -31 -58 -32
-113 -4 -171 32 -66 78 -96 154 -101 65 -4 97 6 144 47 27 23 44 23 49 -1 4
-23 -73 -75 -131 -88 -192 -41 -339 151 -251 328 18 35 32 52 45 52 10 0 19
-4 19 -9z m6590 -214 c0 -24 -260 -362 -280 -365 -29 -5 -25 18 11 67 35 47
34 55 -21 120 l-29 34 -52 -21 c-54 -23 -72 -21 -67 6 2 11 69 42 198 93 197
78 240 90 240 66z m174 -239 c47 -72 54 -115 26 -172 -16 -33 -32 -50 -64 -65
-52 -26 -69 -26 -122 -2 l-42 19 -34 -81 c-21 -50 -41 -83 -51 -85 -11 -2 -17
3 -17 17 0 27 80 211 92 211 6 0 23 -11 40 -25 58 -49 157 -19 171 52 6 31
-27 111 -48 119 -7 3 -54 -21 -104 -53 -50 -32 -125 -80 -167 -106 -72 -46
-99 -52 -92 -21 3 13 353 243 370 244 4 0 23 -24 42 -52z m193 -316 c51 -99
42 -171 -29 -226 -46 -34 -197 -106 -224 -106 -33 0 -75 18 -103 43 -24 23
-81 127 -81 149 0 15 368 209 390 205 8 -1 29 -31 47 -65z m173 -356 c0 -16
-334 -286 -362 -294 -36 -9 -19 34 27 68 l44 33 -15 36 c-9 20 -21 49 -26 64
-10 28 -11 28 -74 22 -61 -7 -64 -6 -64 14 0 11 6 21 13 22 6 0 91 11 187 23
216 29 270 31 270 12z m-7662 -768 c3 -14 -3 -18 -25 -18 -15 0 -44 -3 -65 -6
-36 -6 -36 -7 -48 -71 -7 -35 -11 -65 -9 -67 2 -1 25 -15 52 -30 26 -15 47
-31 47 -37 0 -28 -43 -14 -172 57 -79 43 -163 88 -188 102 -108 58 -93 68 115
80 239 13 289 11 293 -10z m-241 -252 c81 -14 115 -33 144 -79 17 -27 20 -43
15 -107 -6 -94 -12 -110 -41 -110 -24 0 -364 47 -403 56 -23 5 -24 7 -17 67
19 172 88 211 302 173z m-106 -369 c19 -12 41 -37 49 -54 8 -18 18 -33 22 -33
4 0 40 21 79 46 64 41 99 50 99 26 0 -5 -8 -16 -17 -24 -30 -25 -173 -108
-187 -108 -8 0 -16 16 -20 38 -10 68 -87 110 -146 80 -31 -16 -60 -72 -60
-115 0 -39 4 -40 205 -48 83 -3 162 -8 178 -11 25 -5 37 -27 19 -38 -6 -3
-426 19 -439 23 -12 4 0 132 15 161 38 76 134 103 203 57z m236 -323 c2 -7
-21 -20 -54 -31 l-58 -20 0 -68 0 -69 55 -16 c35 -10 56 -22 58 -33 5 -25 -17
-22 -230 33 -244 64 -230 59 -226 78 2 12 58 34 203 79 195 61 245 70 252 47z
m-196 -340 c4 -16 7 -53 8 -82 l1 -54 104 7 c76 5 105 4 111 -5 4 -6 3 -15 -1
-20 -13 -12 -436 -52 -446 -42 -9 9 -29 192 -22 204 3 4 11 8 19 8 14 0 19
-20 30 -120 l6 -56 67 8 c37 4 73 7 81 7 11 1 12 17 7 84 -4 46 -3 86 1 90 13
13 28 1 34 -29z m307 -554 c15 -64 17 -88 8 -97 -11 -11 -382 -103 -417 -103
-14 0 -22 18 -38 89 -26 109 -26 121 -3 121 15 0 22 -16 37 -80 13 -59 22 -80
34 -80 23 1 132 28 139 34 3 4 -2 40 -12 81 -18 75 -16 95 9 95 9 0 19 -27 31
-77 9 -43 18 -81 20 -84 3 -6 151 24 159 32 2 2 -5 40 -16 84 -14 61 -16 81
-6 87 20 12 34 -13 55 -102z m7726 -30 c28 -13 60 -39 76 -62 54 -75 64 -207
16 -216 -17 -4 -18 1 -13 37 11 85 -27 167 -93 201 -56 29 -100 33 -150 15
-54 -19 -85 -47 -112 -100 -26 -51 -25 -50 -42 -35 -14 11 -14 16 0 48 51 122
194 173 318 112z m-7856 -280 c14 -41 26 -76 27 -78 1 -1 38 9 81 23 95 30
127 32 122 8 -2 -13 -55 -33 -207 -81 -112 -35 -209 -61 -217 -58 -16 6 -68
172 -60 193 12 30 31 5 55 -68 13 -41 25 -76 27 -78 4 -5 154 41 154 48 0 3
-9 35 -20 69 -25 79 -26 105 -3 100 11 -2 25 -29 41 -78z m7722 -61 c99 -71
180 -137 180 -145 0 -10 -12 -14 -42 -14 -81 0 -423 32 -432 40 -20 19 8 31
66 29 l61 -3 23 64 c25 70 26 67 -38 107 -30 18 -38 53 -13 53 8 0 96 -59 195
-131z m-7456 -68 c7 -11 -11 -32 -55 -65 l-36 -26 25 -65 26 -65 63 6 c60 6
63 6 63 -15 0 -11 -6 -21 -12 -21 -7 0 -110 -11 -228 -24 -215 -24 -247 -23
-225 9 15 22 347 275 361 275 7 0 15 -4 18 -9z m7199 -135 c29 -13 113 -52
187 -86 74 -34 140 -67 147 -73 9 -9 4 -30 -24 -92 -42 -94 -57 -115 -75 -97
-9 9 -4 27 20 80 18 38 32 74 32 80 0 6 -24 22 -54 35 -94 43 -87 45 -125 -38
-31 -69 -51 -89 -66 -65 -3 5 8 39 25 76 16 37 30 72 30 78 0 6 -38 28 -85 50
-78 35 -96 52 -78 69 9 10 8 10 66 -17z m-7066 -177 c18 -34 16 -132 -3 -177
-42 -102 -156 -158 -265 -132 -60 15 -149 91 -149 128 0 33 24 27 51 -12 96
-141 323 -81 337 89 3 31 -1 68 -8 84 -21 52 12 69 37 20z m7081 -156 c97 -53
182 -102 188 -110 16 -19 -72 -183 -98 -183 -25 0 -23 13 18 91 20 38 35 71
33 73 -2 2 -34 20 -71 40 l-67 37 -25 -43 c-13 -24 -30 -55 -37 -70 -13 -29
-49 -39 -49 -14 0 8 16 44 36 81 20 36 34 68 32 70 -10 10 -139 77 -142 74 -2
-2 -20 -34 -40 -71 -35 -63 -57 -81 -70 -59 -8 13 87 181 102 181 7 0 93 -43
190 -97z m-269 -463 c94 -69 170 -131 171 -139 0 -24 -104 -161 -122 -161 -29
0 -21 24 28 90 l46 63 -23 18 c-13 10 -43 32 -66 49 l-42 31 -48 -65 c-44 -61
-71 -77 -80 -50 -2 6 17 39 42 72 25 34 45 65 45 70 0 4 -34 31 -75 60 -70 51
-85 69 -68 86 10 10 9 11 192 -124z m-191 -258 c110 -165 139 -222 113 -222
-5 0 -63 25 -128 56 -65 30 -157 74 -205 96 -81 38 -103 58 -79 72 5 3 33 -5
63 -18 l54 -24 34 41 c54 63 54 63 20 117 -30 46 -33 75 -7 68 7 -2 67 -86
135 -186z m-188 -227 l154 -155 -44 -46 c-55 -56 -88 -74 -135 -74 -93 0 -167
100 -135 184 6 16 9 30 7 32 -2 2 -43 11 -90 20 -73 14 -87 19 -87 35 0 11 7
19 18 19 27 0 213 -38 220 -44 3 -4 -2 -22 -12 -41 -45 -83 1 -165 90 -165 15
0 41 15 67 40 l42 39 -142 143 c-79 79 -143 149 -143 156 0 35 50 -2 190 -143z
m-254 -217 c70 -84 134 -161 142 -170 13 -16 11 -21 -19 -49 -121 -114 -204
-117 -297 -9 -93 107 -112 139 -112 186 0 25 7 58 15 73 16 33 113 121 132
121 7 0 69 -69 139 -152z m-319 -143 c19 -55 52 -149 74 -210 44 -123 46 -135
22 -135 -24 0 -363 277 -363 295 0 25 31 17 75 -19 l42 -35 56 40 c32 23 57
41 57 42 0 1 -9 26 -20 55 -21 55 -19 75 7 70 10 -2 29 -41 50 -103z m-4690
49 c3 -9 -2 -39 -12 -66 -9 -27 -16 -50 -14 -52 2 -1 28 -19 57 -40 l54 -37
44 36 c42 35 81 42 72 13 -7 -21 -341 -287 -360 -288 -10 0 -18 7 -18 16 0 14
72 224 130 377 22 58 36 70 47 41z m401 -252 c34 -20 62 -40 62 -46 0 -5 -50
-94 -111 -198 -87 -147 -115 -188 -128 -183 -42 16 -125 73 -144 100 -16 22
-22 44 -22 85 0 48 7 65 49 135 60 98 91 133 131 145 45 13 93 2 163 -38z
m174 -182 c26 -147 28 -141 -35 -134 -47 6 -56 4 -85 -20 -62 -53 -49 -137 28
-176 21 -11 42 -20 45 -20 3 0 45 83 94 185 49 102 95 185 101 185 30 0 16
-44 -66 -213 -48 -100 -93 -188 -101 -196 -11 -13 -21 -11 -74 14 -70 34 -100
70 -106 129 -9 78 45 145 122 154 l47 5 -6 36 c-3 20 -8 62 -12 95 -6 53 -6
58 12 54 16 -3 22 -21 36 -98z m260 -87 l-4 -61 45 -20 c82 -36 81 -36 116 13
31 44 53 55 66 35 6 -9 -238 -344 -270 -370 -10 -8 -19 -9 -25 -4 -8 8 24 426
36 462 2 8 12 12 21 10 15 -3 17 -13 15 -65z m458 -107 c0 -20 -120 -410 -129
-419 -11 -11 -192 44 -198 61 -12 29 14 31 91 6 43 -13 80 -23 81 -22 6 10 44
152 41 155 -2 2 -37 14 -77 26 -50 16 -75 28 -77 40 -5 23 20 22 100 -3 34
-11 66 -20 69 -20 6 0 10 12 44 133 13 44 21 57 36 57 10 0 19 -6 19 -14z
m438 -77 c47 -8 62 -15 62 -28 0 -27 -69 -423 -74 -429 -5 -4 -130 12 -183 25
-15 3 -23 13 -23 25 0 18 4 20 38 14 20 -3 60 -9 88 -12 l50 -6 12 77 c7 43
11 79 10 80 -2 2 -39 9 -83 16 -64 11 -80 18 -83 33 -4 18 1 19 54 13 33 -4
73 -9 90 -13 l32 -6 11 64 c18 108 21 103 -65 115 -78 11 -102 23 -89 43 8 12
19 12 153 -11z m328 -246 c-23 -276 -8 -247 -124 -238 -99 7 -119 14 -109 37
4 11 22 12 83 7 44 -4 82 -4 85 0 4 3 9 40 12 82 l7 77 -85 7 c-77 6 -85 9
-85 27 0 20 4 21 85 14 98 -7 89 -17 100 114 6 71 20 99 38 81 5 -5 2 -96 -7
-208z m544 179 c70 -43 104 -99 108 -181 5 -82 -11 -121 -70 -181 -42 -41 -96
-64 -138 -58 -41 5 -29 30 21 42 62 16 103 48 128 99 55 113 -10 243 -132 266
-26 5 -47 6 -47 3 0 -3 -5 -1 -11 5 -7 7 -9 19 -5 28 9 25 88 12 146 -23z
m-415 -27 c13 -46 19 -55 39 -55 13 0 43 -3 68 -6 l45 -6 17 61 c11 39 22 61
32 61 33 0 32 -6 -77 -363 -43 -141 -50 -135 -114 104 -73 271 -71 259 -47
259 16 0 24 -12 37 -55z"/>
<path d="M4607 9423 c-13 -129 -14 -125 41 -117 26 3 49 8 51 10 5 5 -72 174
-80 174 -3 0 -9 -30 -12 -67z"/>
<path d="M4223 9469 c-18 -5 -33 -15 -33 -22 0 -18 87 -338 94 -345 13 -12
116 29 136 55 27 34 25 78 -7 191 -23 81 -31 97 -57 113 -33 20 -81 23 -133 8z"/>
<path d="M3634 9155 c3 -16 10 -61 16 -100 6 -38 13 -71 15 -73 3 -3 84 35 94
44 4 3 -76 101 -117 144 -12 13 -13 11 -8 -15z"/>
<path d="M5175 9024 c-616 -49 -1163 -224 -1665 -532 -883 -543 -1502 -1454
-1675 -2467 -41 -244 -50 -349 -50 -625 0 -340 26 -562 100 -865 227 -924 814
-1729 1625 -2227 453 -278 933 -444 1485 -514 196 -25 623 -26 825 -1 1090
134 2011 701 2619 1609 310 464 506 1004 578 1588 24 201 24 619 0 820 -61
492 -206 943 -436 1354 -331 591 -816 1076 -1404 1405 -416 233 -863 377
-1347 436 -128 16 -545 28 -655 19z m220 -271 c-4 -10 -24 -67 -45 -128 -169
-492 -430 -1069 -709 -1564 -45 -78 -81 -147 -81 -152 0 -6 82 -9 205 -7 113
2 205 0 205 -3 0 -3 -55 -97 -123 -210 -130 -216 -271 -431 -419 -638 -50 -69
-93 -131 -95 -138 -4 -10 34 -13 176 -13 100 0 181 -2 181 -5 0 -10 -235 -363
-344 -515 -109 -154 -267 -366 -334 -447 l-34 -43 196 0 c108 0 196 -4 196 -8
0 -28 -441 -655 -682 -970 -65 -84 -118 -155 -118 -158 0 -2 331 -4 735 -4
l735 0 0 -845 0 -845 -27 0 c-44 0 -263 38 -381 65 -496 117 -990 366 -1387
699 -95 79 -300 283 -384 381 -432 504 -702 1107 -790 1766 -33 244 -33 614 0
858 81 607 312 1156 695 1651 179 232 518 546 775 718 512 342 1133 544 1744
565 44 2 88 4 99 5 14 2 16 -2 11 -15z m40 -30 c13 -53 126 -356 199 -536 149
-365 339 -761 529 -1102 l95 -170 -204 -3 c-117 -1 -204 -6 -204 -12 0 -41
425 -701 606 -942 l36 -48 -181 0 c-141 0 -181 -3 -181 -13 0 -31 388 -593
595 -862 58 -75 105 -138 105 -140 0 -3 -88 -6 -195 -7 l-196 -3 148 -220
c162 -240 341 -489 536 -745 l126 -165 -734 -3 -735 -2 0 -849 0 -849 -97 -6
c-54 -3 -136 -7 -183 -8 l-85 -3 -3 3363 c-1 1965 2 3361 7 3358 5 -3 12 -18
16 -33z m2316 -3467 c237 -51 404 -257 403 -501 0 -257 -182 -465 -442 -505
-41 -7 -88 -8 -118 -3 l-49 8 62 23 c126 46 245 163 294 290 31 79 38 236 14
318 -48 166 -159 284 -325 345 l-65 24 35 6 c61 11 123 9 191 -5z"/>
<path d="M7548 8884 c-35 -31 -67 -60 -71 -64 -5 -4 12 -22 37 -39 33 -23 48
-28 51 -19 21 59 53 173 50 176 -2 2 -32 -22 -67 -54z"/>
<path d="M2460 8244 c24 -43 47 -83 52 -89 5 -6 22 5 45 28 23 23 34 40 28 45
-6 5 -46 28 -89 52 l-79 43 43 -79z"/>
<path d="M8630 7918 c-41 -16 -78 -33 -83 -37 -4 -4 7 -27 24 -50 17 -24 34
-39 38 -35 14 16 97 129 105 142 10 16 3 15 -84 -20z"/>
<path d="M8956 7389 c-83 -43 -154 -83 -159 -88 -13 -13 36 -96 68 -117 14 -9
39 -16 57 -16 36 0 193 79 222 111 30 33 31 82 2 139 -15 29 -30 52 -34 51 -4
0 -74 -36 -156 -80z"/>
<path d="M9125 7048 c-38 -5 -71 -11 -73 -12 -5 -6 37 -96 45 -96 4 0 41 27
81 60 83 67 84 67 -53 48z"/>
<path d="M1362 6291 l-43 -6 89 -48 89 -47 6 29 c3 16 9 40 13 55 6 26 6 26
-52 24 -33 0 -78 -4 -102 -7z"/>
<path d="M1243 6030 c-33 -20 -53 -66 -53 -126 l0 -31 163 -22 c89 -13 172
-25 183 -28 20 -4 22 1 29 55 7 62 -5 103 -39 131 -15 13 -168 41 -221 41 -16
0 -44 -9 -62 -20z"/>
<path d="M1330 5294 c-41 -13 -82 -27 -90 -30 -13 -5 133 -52 168 -54 8 0 12
17 12 55 0 30 -3 55 -7 54 -5 -1 -42 -12 -83 -25z"/>
<path d="M9175 4074 c-9 -25 -15 -47 -13 -50 7 -6 188 -18 188 -12 0 6 -145
108 -153 108 -2 0 -12 -21 -22 -46z"/>
<path d="M1630 3879 c-96 -74 -96 -72 5 -64 50 4 93 10 97 14 4 3 -3 28 -15
54 l-22 47 -65 -51z"/>
<path d="M8471 2845 c-17 -20 -31 -38 -31 -40 0 -6 172 -86 176 -83 4 5 -100
158 -107 158 -4 0 -21 -16 -38 -35z"/>
<path d="M7958 2492 c-62 -46 -84 -104 -57 -155 23 -41 122 -152 153 -170 20
-11 42 -16 60 -12 28 5 115 63 116 77 0 5 -201 251 -228 280 -4 3 -24 -6 -44
-20z"/>
<path d="M7740 2170 c-22 -18 -31 -32 -25 -37 76 -67 137 -115 140 -112 8 8
-58 179 -69 179 -6 0 -27 -14 -46 -30z"/>
<path d="M3075 2148 c-22 -60 -54 -162 -52 -164 4 -4 146 109 147 117 0 7 -73
59 -83 59 -4 0 -10 -6 -12 -12z"/>
<path d="M3353 2055 c-23 -16 -116 -164 -128 -203 -12 -41 13 -91 63 -123 25
-16 51 -29 56 -29 8 0 178 273 194 310 1 4 -20 19 -47 33 -55 30 -106 34 -138
12z"/>
<path d="M3945 1623 c-3 -38 -8 -84 -11 -103 -3 -19 -3 -33 0 -29 14 13 116
155 116 160 0 6 -78 39 -92 39 -4 0 -9 -30 -13 -67z"/>
<path d="M5366 1333 c13 -49 24 -92 24 -97 0 -22 12 7 35 85 13 46 25 87 25
92 0 4 -24 7 -54 7 l-54 0 24 -87z"/>
</g>
</svg>
